<?xml version="1.0" encoding="UTF-8" standalone="no"?>
<!-- Created with Inkscape (http://www.inkscape.org/) -->

<svg
   xmlns:dc="http://purl.org/dc/elements/1.1/"
   xmlns:cc="http://creativecommons.org/ns#"
   xmlns:rdf="http://www.w3.org/1999/02/22-rdf-syntax-ns#"
   xmlns:svg="http://www.w3.org/2000/svg"
   xmlns="http://www.w3.org/2000/svg"
   xmlns:sodipodi="http://sodipodi.sourceforge.net/DTD/sodipodi-0.dtd"
   xmlns:inkscape="http://www.inkscape.org/namespaces/inkscape"
   width="72in"
   height="24in"
   viewBox="0 0 6479.9994 2160.0001"
   id="svg2"
   version="1.1"
   inkscape:version="0.91 r13725"
   sodipodi:docname="banner_6x2.svg">
  <defs
     id="defs4" />
  <sodipodi:namedview
     id="base"
     pagecolor="#ffffff"
     bordercolor="#666666"
     borderopacity="1.0"
     inkscape:pageopacity="0.0"
     inkscape:pageshadow="2"
     inkscape:zoom="0.16"
     inkscape:cx="3380.1171"
     inkscape:cy="355.52451"
     inkscape:document-units="px"
     inkscape:current-layer="layer1"
     showgrid="false"
     units="ft"
     inkscape:window-width="2560"
     inkscape:window-height="1391"
     inkscape:window-x="0"
     inkscape:window-y="1"
     inkscape:window-maximized="1" />
  <metadata
     id="metadata7">
    <rdf:RDF>
      <cc:Work
         rdf:about="">
        <dc:format>image/svg+xml</dc:format>
        <dc:type
           rdf:resource="http://purl.org/dc/dcmitype/StillImage" />
        <dc:title></dc:title>
      </cc:Work>
    </rdf:RDF>
  </metadata>
  <g
     inkscape:label="Livello 1"
     inkscape:groupmode="layer"
     id="layer1"
     transform="translate(0,1107.6378)">
    <g
       id="g4395"
       transform="translate(-18.63097,4.3024593)">
      <g
         transform="translate(-76.771593,0)"
         id="g4388">
        <path
           style="fill:#97bf0d"
           inkscape:connector-curvature="0"
           d="m 1978.051,691.65109 -1080.11474,0 c -101.45668,0 -183.534,-82.07732 -183.534,-183.534 l 0,-1080.1147 c 0,-101.45668 82.07732,-183.534 183.534,-183.534 l 1079.54474,0 c 101.4567,0 183.534,82.07732 183.534,183.534 l 0,1079.54472 c 0.57,102.02666 -81.5074,184.10398 -182.964,184.10398 z"
           id="path4302" />
        <g
           id="g4328"
           transform="matrix(5.6998137,0,0,5.6998137,-867.86602,-1725.6399)">
          <path
             style="fill:#ffffff"
             inkscape:connector-curvature="0"
             d="m 410.2,392.5 c -10.8,-2.1 -19,-5.3 -27.2,-9 -8.1,-3.8 -16.3,-8 -25.8,-14.9 -2.5,-1.9 -6.3,-4.8 -10.4,-9.1 -2,-2.2 -4.2,-4.6 -6.3,-7.4 -1.3,-1.8 -2.7,-3.8 -4.1,-5.7 -1.3,-2.3 -2.7,-4.6 -4,-6.9 -1.2,-2.4 -2.2,-5 -3.4,-7.4 -1,-2.6 -1.8,-5.3 -2.8,-8 -6.6,-21.8 -3.8,-48.9 9.8,-70.4 13.6,-21.5 37.7,-36.6 62.8,-38 12.5,-0.8 25,1.2 36.2,5.8 11.2,4.7 21,11.9 28.8,20.3 15.8,17 22.4,38.8 22.5,56.9 0,9.1 -1.2,17.4 -3.1,24.5 -1.1,3.5 -2.1,6.7 -3.3,9.7 -1.3,2.9 -2.3,5.6 -3.7,7.7 -1.2,2.2 -2.4,4.2 -3.5,6 -1.2,1.7 -2.1,3 -2.9,4.1 -0.8,1.1 -1.4,1.9 -1.8,2.6 -0.4,0.6 -0.7,0.8 -0.7,0.8 0,0 -1,1.1 -2.8,3.1 -0.9,1 -2,2.4 -3.4,3.6 -0.7,0.6 -1.4,1.4 -2.2,2.1 -0.8,0.6 -1.8,1.4 -2.7,2.1 -3.8,2.9 -8.9,5.7 -15.3,7.4 -6.4,1.7 -14.2,2.2 -22.5,0.5 -8.4,-1.7 -17.2,-5.5 -25.4,-11.6 -8,-6.1 -15.6,-14.3 -20.1,-24.5 -4.5,-10.1 -5.8,-21.6 -2.3,-32.9 1.3,-5.1 4.5,-10.4 8.1,-15.4 3.7,-5 8.2,-9.6 13.1,-13.8 9.8,-8.4 21.4,-15.2 33.6,-20.3 1.1,-0.5 0.9,-0.4 0.9,-0.5 l 0,0 0.1,1.2 0.3,2.6 0.4,5.1 c 0.2,3.4 0.3,6.7 0.3,10.1 -0.1,13.2 -1.7,26.5 -6.6,36.9 -2.4,5.1 -5.6,9.4 -9.4,12.4 -1,0.7 -2.1,1.4 -3,2 -1.1,0.5 -2.1,1.1 -3.3,1.6 -1.2,0.4 -2.3,0.8 -3.5,1.1 l -3.2,0.6 c -0.8,0.2 -1.7,0.2 -2.6,0.3 -0.7,0.1 -1.5,0.2 -2.2,0.2 l -0.1,0 c 0,-0.1 0.1,0.2 -0.1,-0.1 -0.5,-1.4 -0.9,-2.7 -1.2,-4 -1.2,-5.1 -1,-9.1 -0.5,-11.6 0.5,-2.3 1.2,-4 2.3,-6.9 1.1,-2.6 2.1,-4.9 3.1,-7.1 2.1,-4.3 4.3,-8.3 6.8,-12.1 4.9,-7.7 10.3,-15.3 16.9,-24.3 -10,4.7 -18.2,9.2 -26,15.9 -3.9,3.4 -7.7,7.4 -11,12.4 -1.6,2.5 -3.2,5.2 -4.5,8 -1.2,2.5 -3,6.5 -3.8,10.7 -0.9,4.5 -1.2,11.5 0.6,19.2 0.4,1.9 1.1,3.9 1.8,5.9 1.1,3.1 2.9,6.6 4.8,9.7 0.3,1.1 1.4,0.8 2.3,0.9 0.9,0.1 1.9,0.1 2.8,0.2 1.9,0.1 3.7,0.2 5.7,0.3 l 0.7,0 0.4,0 0.9,-0.1 1.8,-0.2 c 1.2,-0.1 2.4,-0.2 3.7,-0.4 1.6,-0.4 3.1,-0.6 4.7,-1 1.8,-0.5 3.6,-1.2 5.4,-1.7 1.8,-0.7 3.5,-1.7 5.3,-2.5 1.7,-1.1 3.4,-2.1 5,-3.3 6.3,-4.9 11.2,-11.6 14.5,-18.7 6.6,-14.3 8.1,-29.5 8.3,-44.3 0,-3.8 -0.1,-7.4 -0.4,-11.2 -0.1,-1.8 -0.3,-3.7 -0.4,-5.6 l -0.3,-2.8 -0.4,-4.1 c -0.4,-3.6 -1,-7.1 -1.6,-10.4 l -0.9,-5.1 -0.4,-2.6 c 0,-0.4 -0.3,0 -0.4,0 l -0.6,0.2 -1.2,0.5 -18.4,6.7 c -13.5,5.7 -26.5,13.2 -38,23.1 -5.7,5 -11,10.4 -15.6,16.5 -2.2,3.1 -4.5,6.3 -6.3,9.7 -1,1.7 -1.9,3.5 -2.7,5.4 -0.4,0.9 -0.8,2 -1.2,3.1 l -0.8,2.8 c -2.2,7.4 -3.1,15.5 -2.5,23.2 0.6,7.7 2.7,15.1 5.6,21.8 6,13.3 15.4,23.6 25.4,31.2 10.2,7.5 21.2,12.3 31.9,14.4 10.7,2.2 21.1,1.7 29.8,-0.6 8.7,-2.3 15.8,-6.3 20.9,-10.1 1.2,-1 2.5,-1.9 3.6,-2.9 1.1,-1 2.1,-1.9 2.9,-2.8 1.9,-1.7 3.1,-3.2 4.2,-4.5 2.1,-2.5 3.3,-3.8 3.3,-3.8 0,0 0.3,-0.4 0.8,-1 0.5,-0.6 1.2,-1.7 2.2,-3 1,-1.4 2.1,-3 3.6,-5 1.2,-2 2.6,-4.5 4.2,-7.2 1.6,-2.7 2.9,-6 4.5,-9.4 1.4,-3.5 2.7,-7.4 4,-11.6 2.3,-8.5 3.8,-18.4 3.8,-29.3 0,-10.9 -2.1,-22.9 -6.4,-34.8 -4.4,-11.9 -11.2,-23.6 -20.6,-33.8 -9.4,-10.2 -21.1,-18.8 -34.7,-24.5 -13.5,-5.5 -28.5,-8 -43.6,-7 -30.2,1.7 -59.4,19.8 -75.7,45.8 -8.2,13 -13.2,27.7 -15.1,42.4 -1.9,14.7 -0.6,29.3 3.3,42.5 1.2,3.2 2.1,6.5 3.3,9.7 1.4,3 2.7,6.1 4.1,9 1.6,2.9 3.2,5.6 4.8,8.3 1.7,2.3 3.3,4.7 4.9,6.9 2.6,3.3 5.3,6.2 7.7,8.8 5,5.1 9.5,8.6 12.6,10.8 11.4,8.2 22.2,11.8 32.3,13.1 10.3,1.2 20.1,0.1 30.5,-3.2 z"
             id="path4330" />
        </g>
      </g>
      <g
         transform="matrix(1.9728286,0,0,1.9728286,-2181.0353,-673.97377)"
         id="g4373">
        <g
           id="g4304"
           transform="matrix(5.6998137,0,0,5.6998137,-867.86602,-1725.6399)">
          <path
             style="fill:#97bf0d"
             inkscape:connector-curvature="0"
             d="m 545.6,381.5 0,-15.3 49.7,-54.8 -47,0 0,-14 64.8,0 0,14.8 -50.3,55.2 51.9,0 0,14.1 -69.1,0 0,0 z"
             id="path4306" />
          <path
             style="fill:#97bf0d"
             inkscape:connector-curvature="0"
             d="m 643.9,345.1 c 0.3,5.2 0.9,9.3 1.9,12.4 1,3.1 2.5,5.6 4.5,7.3 2,1.7 4.5,2.9 7.6,3.5 3.1,0.6 6.8,0.9 11.3,0.9 2.6,0 5.3,-0.2 8.1,-0.7 2.8,-0.5 5.4,-1 7.9,-1.7 2.5,-0.7 4.8,-1.3 6.8,-2 2.1,-0.7 8,-3 9.2,-3.4 l 0,15.2 c -1.8,0.9 -4.1,1.7 -6.7,2.5 -2.6,0.8 -5.4,1.5 -8.4,2.1 -3,0.6 -6.1,1.1 -9.4,1.5 -3.2,0.4 -6.4,0.6 -9.4,0.6 -6.5,0 -12.4,-0.5 -17.4,-1.6 -5.1,-1 -9.3,-3.1 -12.8,-6.2 -3.5,-3.1 -6.2,-7.4 -8,-13 -1.8,-5.5 -2.8,-12.9 -2.8,-21.9 0,-9.4 1,-17.1 2.9,-22.9 2,-5.9 4.7,-10.4 8.3,-13.6 3.5,-3.2 7.7,-5.4 12.6,-6.6 4.8,-1.1 10.2,-1.7 16,-1.7 6.3,0 11.9,0.6 16.7,1.8 4.8,1.2 8.9,3.4 12.2,6.6 3.3,3.2 5.8,7.5 7.6,13 1.7,5.5 2.6,12.6 2.6,21.2 l 0,6.7 -61.3,0 0,0 z m 43.5,-14.2 c -0.3,-4.5 -0.9,-8.2 -1.8,-11 -1,-2.8 -2.3,-5 -4.1,-6.5 -1.7,-1.5 -3.9,-2.6 -6.4,-3.1 -2.5,-0.5 -5.5,-0.8 -9,-0.8 -3.1,0 -5.9,0.2 -8.5,0.5 -2.6,0.3 -4.8,1.2 -6.8,2.6 -2,1.4 -3.5,3.5 -4.7,6.4 -1.2,2.9 -1.9,6.9 -2.2,11.9 l 43.5,0 z"
             id="path4308" />
          <path
             style="fill:#97bf0d"
             inkscape:connector-curvature="0"
             d="m 736.9,381.5 0,-70.1 -25.8,0 0,-14 70.6,0 0,14 -27.5,0 0,70.1 -17.3,0 z"
             id="path4310" />
          <path
             style="fill:#97bf0d"
             inkscape:connector-curvature="0"
             d="m 869,381.7 c -5.6,-0.6 -11.1,-2 -13.8,-3.9 -2.7,-1.9 -4.5,-5 -5.4,-9.3 -2.7,4.6 -6.3,8.2 -10.8,10.6 -4.5,2.4 -9.9,3.7 -16.2,3.7 -5,0 -9.5,-0.4 -13.7,-1.2 -4.2,-0.8 -7.7,-2.2 -10.7,-4.1 -3,-2 -5.3,-4.6 -6.9,-8 -1.7,-3.4 -2.5,-7.6 -2.5,-12.6 0,-5.8 0.8,-10.5 2.5,-14.3 1.7,-3.8 4,-6.7 6.9,-9 3,-2.2 6.5,-3.8 10.7,-4.7 4.1,-0.9 8.7,-1.3 13.7,-1.3 l 20.7,0 c -0.3,-4.2 -0.8,-7.5 -1.5,-9.9 -0.7,-2.4 -1.9,-4.2 -3.3,-5.4 -1.5,-1.2 -3.4,-1.9 -5.8,-2.2 -2.4,-0.3 -5.4,-0.5 -9,-0.5 -2.6,0 -5.2,0.2 -7.7,0.5 -2.5,0.4 -4.9,0.8 -7.1,1.3 -2.2,0.5 -4.3,1.1 -6.1,1.6 -1.8,0.5 -7.7,2.6 -8.9,3 l 0,-15 c 3.7,-1.7 8.1,-3.1 13.2,-4.1 5.2,-1 10.8,-1.4 16.9,-1.4 7.1,0 13,0.5 17.8,1.6 4.8,1 8.6,3.1 11.4,6.2 2.8,3.1 4.9,7.4 6.1,13.1 1.2,5.7 1.8,13.1 1.8,22.4 l 0,2.1 0,14.7 c 0,4.3 0.6,7.3 1.8,9 1.2,1.7 3.2,2.8 6,3.3 l -0.1,13.8 z m -25.4,-39.9 -20.8,0 c -2.5,0 -4.8,0.2 -6.9,0.5 -2.1,0.3 -3.8,1 -5.4,2 -1.5,1 -2.7,2.6 -3.5,4.5 -0.8,2 -1.2,4.7 -1.2,8.1 0,2.6 0.4,4.7 1.3,6.3 0.9,1.6 2,2.8 3.5,3.5 1.5,0.8 3.3,1.3 5.4,1.6 2.1,0.3 4.4,0.4 6.9,0.4 4.5,0 8,-0.6 10.7,-1.7 2.7,-1.1 4.8,-2.8 6.3,-5.1 1.5,-2.3 2.5,-5 2.9,-8.3 0.5,-3.3 0.7,-7.1 0.7,-11.5 l 0.1,-0.3 0,0 z"
             id="path4312" />
        </g>
        <path
           style="fill:#97bf0d"
           inkscape:connector-curvature="0"
           d="m 2375.328,688.2312 -20.5194,-50.72834 -73.5276,0 -19.9493,50.72834 -18.8094,0 64.9779,-161.87471 21.6593,0 64.9779,161.87471 -18.8094,0 z m -46.7385,-116.2762 -9.6897,-30.77899 -1.7099,0 -9.6897,30.77899 -21.0893,52.43829 63.2679,0 -21.0893,-52.43829 z"
           id="path4314" />
        <path
           style="fill:#97bf0d"
           inkscape:connector-curvature="0"
           d="m 2510.4136,688.2312 0,-161.87471 17.6694,0 0,147.0552 96.3268,0 0,14.81951 -113.9962,0 z"
           id="path4316" />
        <path
           style="fill:#97bf0d"
           inkscape:connector-curvature="0"
           d="m 2759.4954,688.2312 0,-161.87471 17.6694,0 0,147.0552 96.3269,0 0,14.81951 -113.9963,0 z"
           id="path4318" />
        <path
           style="fill:#97bf0d"
           inkscape:connector-curvature="0"
           d="m 3011.4272,688.2312 0,-161.87471 18.2394,0 0,161.87471 -18.2394,0 z"
           id="path4320" />
        <path
           style="fill:#97bf0d"
           inkscape:connector-curvature="0"
           d="m 3298.1278,688.2312 -20.5193,-50.72834 -73.5276,0 -19.9494,50.72834 -18.2394,0 64.9779,-161.87471 21.6593,0 64.9779,161.87471 -19.3794,0 z m -46.7385,-116.2762 -9.6896,-30.77899 -1.71,0 -9.6897,30.77899 -21.0893,52.43829 63.268,0 -21.0894,-52.43829 z"
           id="path4322" />
        <path
           style="fill:#97bf0d"
           inkscape:connector-curvature="0"
           d="m 3548.3496,688.2312 -95.7568,-137.36551 0,137.36551 -17.0995,0 0,-161.87471 19.9494,0 95.7568,136.79553 0,-136.79553 17.0995,0 0,161.87471 -19.9494,0 z"
           id="path4324" />
        <path
           style="fill:#97bf0d"
           inkscape:connector-curvature="0"
           d="m 3962.7261,688.2312 0,-161.87471 120.836,0 0,14.24954 -102.5966,0 0,56.42815 81.5073,0 0,14.24954 -81.5073,0 0,62.12797 102.5966,0 0,14.81951 -120.836,0 z"
           id="path4326" />
        <path
           style="fill:#97bf0d"
           inkscape:connector-curvature="0"
           d="m 3828.2105,667.14189 c -2.2799,0.56998 -5.1298,1.70995 -8.5497,2.84991 -3.4199,1.13996 -7.9798,2.27992 -11.9696,3.41989 -4.5599,1.13996 -9.1197,1.70994 -14.2496,2.8499 -5.1298,0.56998 -10.2596,1.13997 -15.3895,1.13997 -9.1197,0 -17.6694,-0.56999 -25.0792,-1.70995 -7.9797,-1.13996 -14.2495,-3.98987 -19.9493,-8.54972 -5.6998,-4.55985 -10.2597,-11.39963 -13.1096,-21.08931 -3.4199,-9.1197 -4.5598,-22.22927 -4.5598,-38.18875 0,-15.95948 1.7099,-28.49907 4.5598,-38.18875 3.4199,-9.1197 7.4098,-16.52946 13.1096,-21.08931 5.6998,-4.55985 12.5396,-7.40976 19.9493,-9.11971 7.9798,-1.13996 15.9595,-1.70994 25.0792,-1.70994 10.2597,0 19.3794,1.13996 27.9291,3.41989 7.9798,2.27992 14.2495,3.98987 19.3794,5.69981 l 0,-16.52946 c -13.1096,-4.55985 -29.0691,-6.83977 -47.8785,-6.83977 -12.5395,0 -23.9392,1.13996 -33.6289,3.41988 -10.2596,2.27993 -18.8093,6.2698 -25.6491,11.96961 -6.8398,6.2698 -12.5396,14.81952 -16.5295,25.64916 -3.9898,10.82965 -5.6998,25.64917 -5.6998,43.31859 0,17.66942 1.71,32.48894 5.6998,43.31858 3.9899,10.82965 9.1197,19.37937 16.5295,25.64916 6.8398,6.2698 15.3895,10.25967 25.6491,11.96961 10.2597,2.27993 21.0894,3.41989 33.6289,3.41989 11.9697,0 22.7993,-1.13996 33.059,-2.84991 6.2698,-1.13996 11.9696,-2.8499 17.0994,-4.55985 l 0.57,-17.66942 0,0 z"
           id="path4332" />
      </g>
    </g>
  </g>
</svg>
