<?xml version="1.0" encoding="UTF-8" standalone="no"?>
<!-- Created with Inkscape (http://www.inkscape.org/) -->

<svg
   xmlns:dc="http://purl.org/dc/elements/1.1/"
   xmlns:cc="http://creativecommons.org/ns#"
   xmlns:rdf="http://www.w3.org/1999/02/22-rdf-syntax-ns#"
   xmlns:svg="http://www.w3.org/2000/svg"
   xmlns="http://www.w3.org/2000/svg"
   xmlns:sodipodi="http://sodipodi.sourceforge.net/DTD/sodipodi-0.dtd"
   xmlns:inkscape="http://www.inkscape.org/namespaces/inkscape"
   width="72in"
   height="24in"
   viewBox="0 0 6479.9994 2160.0001"
   id="svg2"
   version="1.1"
   inkscape:version="0.91 r13725"
   sodipodi:docname="banner_6x2.svg">
  <defs
     id="defs4" />
  <sodipodi:namedview
     id="base"
     pagecolor="#ffffff"
     bordercolor="#666666"
     borderopacity="1.0"
     inkscape:pageopacity="0.0"
     inkscape:pageshadow="2"
     inkscape:zoom="0.16"
     inkscape:cx="1820.7421"
     inkscape:cy="355.52451"
     inkscape:document-units="px"
     inkscape:current-layer="layer1"
     showgrid="false"
     units="ft"
     inkscape:window-width="2560"
     inkscape:window-height="1391"
     inkscape:window-x="0"
     inkscape:window-y="1"
     inkscape:window-maximized="1" />
  <metadata
     id="metadata7">
    <rdf:RDF>
      <cc:Work
         rdf:about="">
        <dc:format>image/svg+xml</dc:format>
        <dc:type
           rdf:resource="http://purl.org/dc/dcmitype/StillImage" />
        <dc:title></dc:title>
      </cc:Work>
    </rdf:RDF>
  </metadata>
  <g
     inkscape:label="Livello 1"
     inkscape:groupmode="layer"
     id="layer1"
     transform="translate(0,1107.6378)">
    <g
       id="g4388"
       transform="matrix(1.2691691,0,0,1.2691691,1415.3025,12.899791)">
      <path
         id="path4302"
         d="m 1978.051,691.65109 -1080.11474,0 c -101.45668,0 -183.534,-82.07732 -183.534,-183.534 l 0,-1080.1147 c 0,-101.45668 82.07732,-183.534 183.534,-183.534 l 1079.54474,0 c 101.4567,0 183.534,82.07732 183.534,183.534 l 0,1079.54472 c 0.57,102.02666 -81.5074,184.10398 -182.964,184.10398 z"
         inkscape:connector-curvature="0"
         style="fill:#97bf0d" />
      <g
         transform="matrix(5.6998137,0,0,5.6998137,-867.86602,-1725.6399)"
         id="g4328">
        <path
           id="path4330"
           d="m 410.2,392.5 c -10.8,-2.1 -19,-5.3 -27.2,-9 -8.1,-3.8 -16.3,-8 -25.8,-14.9 -2.5,-1.9 -6.3,-4.8 -10.4,-9.1 -2,-2.2 -4.2,-4.6 -6.3,-7.4 -1.3,-1.8 -2.7,-3.8 -4.1,-5.7 -1.3,-2.3 -2.7,-4.6 -4,-6.9 -1.2,-2.4 -2.2,-5 -3.4,-7.4 -1,-2.6 -1.8,-5.3 -2.8,-8 -6.6,-21.8 -3.8,-48.9 9.8,-70.4 13.6,-21.5 37.7,-36.6 62.8,-38 12.5,-0.8 25,1.2 36.2,5.8 11.2,4.7 21,11.9 28.8,20.3 15.8,17 22.4,38.8 22.5,56.9 0,9.1 -1.2,17.4 -3.1,24.5 -1.1,3.5 -2.1,6.7 -3.3,9.7 -1.3,2.9 -2.3,5.6 -3.7,7.7 -1.2,2.2 -2.4,4.2 -3.5,6 -1.2,1.7 -2.1,3 -2.9,4.1 -0.8,1.1 -1.4,1.9 -1.8,2.6 -0.4,0.6 -0.7,0.8 -0.7,0.8 0,0 -1,1.1 -2.8,3.1 -0.9,1 -2,2.4 -3.4,3.6 -0.7,0.6 -1.4,1.4 -2.2,2.1 -0.8,0.6 -1.8,1.4 -2.7,2.1 -3.8,2.9 -8.9,5.7 -15.3,7.4 -6.4,1.7 -14.2,2.2 -22.5,0.5 -8.4,-1.7 -17.2,-5.5 -25.4,-11.6 -8,-6.1 -15.6,-14.3 -20.1,-24.5 -4.5,-10.1 -5.8,-21.6 -2.3,-32.9 1.3,-5.1 4.5,-10.4 8.1,-15.4 3.7,-5 8.2,-9.6 13.1,-13.8 9.8,-8.4 21.4,-15.2 33.6,-20.3 1.1,-0.5 0.9,-0.4 0.9,-0.5 l 0,0 0.1,1.2 0.3,2.6 0.4,5.1 c 0.2,3.4 0.3,6.7 0.3,10.1 -0.1,13.2 -1.7,26.5 -6.6,36.9 -2.4,5.1 -5.6,9.4 -9.4,12.4 -1,0.7 -2.1,1.4 -3,2 -1.1,0.5 -2.1,1.1 -3.3,1.6 -1.2,0.4 -2.3,0.8 -3.5,1.1 l -3.2,0.6 c -0.8,0.2 -1.7,0.2 -2.6,0.3 -0.7,0.1 -1.5,0.2 -2.2,0.2 l -0.1,0 c 0,-0.1 0.1,0.2 -0.1,-0.1 -0.5,-1.4 -0.9,-2.7 -1.2,-4 -1.2,-5.1 -1,-9.1 -0.5,-11.6 0.5,-2.3 1.2,-4 2.3,-6.9 1.1,-2.6 2.1,-4.9 3.1,-7.1 2.1,-4.3 4.3,-8.3 6.8,-12.1 4.9,-7.7 10.3,-15.3 16.9,-24.3 -10,4.7 -18.2,9.2 -26,15.9 -3.9,3.4 -7.7,7.4 -11,12.4 -1.6,2.5 -3.2,5.2 -4.5,8 -1.2,2.5 -3,6.5 -3.8,10.7 -0.9,4.5 -1.2,11.5 0.6,19.2 0.4,1.9 1.1,3.9 1.8,5.9 1.1,3.1 2.9,6.6 4.8,9.7 0.3,1.1 1.4,0.8 2.3,0.9 0.9,0.1 1.9,0.1 2.8,0.2 1.9,0.1 3.7,0.2 5.7,0.3 l 0.7,0 0.4,0 0.9,-0.1 1.8,-0.2 c 1.2,-0.1 2.4,-0.2 3.7,-0.4 1.6,-0.4 3.1,-0.6 4.7,-1 1.8,-0.5 3.6,-1.2 5.4,-1.7 1.8,-0.7 3.5,-1.7 5.3,-2.5 1.7,-1.1 3.4,-2.1 5,-3.3 6.3,-4.9 11.2,-11.6 14.5,-18.7 6.6,-14.3 8.1,-29.5 8.3,-44.3 0,-3.8 -0.1,-7.4 -0.4,-11.2 -0.1,-1.8 -0.3,-3.7 -0.4,-5.6 l -0.3,-2.8 -0.4,-4.1 c -0.4,-3.6 -1,-7.1 -1.6,-10.4 l -0.9,-5.1 -0.4,-2.6 c 0,-0.4 -0.3,0 -0.4,0 l -0.6,0.2 -1.2,0.5 -18.4,6.7 c -13.5,5.7 -26.5,13.2 -38,23.1 -5.7,5 -11,10.4 -15.6,16.5 -2.2,3.1 -4.5,6.3 -6.3,9.7 -1,1.7 -1.9,3.5 -2.7,5.4 -0.4,0.9 -0.8,2 -1.2,3.1 l -0.8,2.8 c -2.2,7.4 -3.1,15.5 -2.5,23.2 0.6,7.7 2.7,15.1 5.6,21.8 6,13.3 15.4,23.6 25.4,31.2 10.2,7.5 21.2,12.3 31.9,14.4 10.7,2.2 21.1,1.7 29.8,-0.6 8.7,-2.3 15.8,-6.3 20.9,-10.1 1.2,-1 2.5,-1.9 3.6,-2.9 1.1,-1 2.1,-1.9 2.9,-2.8 1.9,-1.7 3.1,-3.2 4.2,-4.5 2.1,-2.5 3.3,-3.8 3.3,-3.8 0,0 0.3,-0.4 0.8,-1 0.5,-0.6 1.2,-1.7 2.2,-3 1,-1.4 2.1,-3 3.6,-5 1.2,-2 2.6,-4.5 4.2,-7.2 1.6,-2.7 2.9,-6 4.5,-9.4 1.4,-3.5 2.7,-7.4 4,-11.6 2.3,-8.5 3.8,-18.4 3.8,-29.3 0,-10.9 -2.1,-22.9 -6.4,-34.8 -4.4,-11.9 -11.2,-23.6 -20.6,-33.8 -9.4,-10.2 -21.1,-18.8 -34.7,-24.5 -13.5,-5.5 -28.5,-8 -43.6,-7 -30.2,1.7 -59.4,19.8 -75.7,45.8 -8.2,13 -13.2,27.7 -15.1,42.4 -1.9,14.7 -0.6,29.3 3.3,42.5 1.2,3.2 2.1,6.5 3.3,9.7 1.4,3 2.7,6.1 4.1,9 1.6,2.9 3.2,5.6 4.8,8.3 1.7,2.3 3.3,4.7 4.9,6.9 2.6,3.3 5.3,6.2 7.7,8.8 5,5.1 9.5,8.6 12.6,10.8 11.4,8.2 22.2,11.8 32.3,13.1 10.3,1.2 20.1,0.1 30.5,-3.2 z"
           inkscape:connector-curvature="0"
           style="fill:#ffffff" />
      </g>
    </g>
  </g>
</svg>
