<?xml version="1.0" encoding="UTF-8" standalone="no"?>
<!-- Created with Inkscape (http://www.inkscape.org/) -->

<svg
   xmlns:dc="http://purl.org/dc/elements/1.1/"
   xmlns:cc="http://creativecommons.org/ns#"
   xmlns:rdf="http://www.w3.org/1999/02/22-rdf-syntax-ns#"
   xmlns:svg="http://www.w3.org/2000/svg"
   xmlns="http://www.w3.org/2000/svg"
   xmlns:sodipodi="http://sodipodi.sourceforge.net/DTD/sodipodi-0.dtd"
   xmlns:inkscape="http://www.inkscape.org/namespaces/inkscape"
   width="48in"
   height="48in"
   viewBox="0 0 4319.9996 4320.0002"
   id="svg2"
   version="1.1"
   inkscape:version="0.91 r13725"
   sodipodi:docname="banner_4x4.svg">
  <defs
     id="defs4" />
  <sodipodi:namedview
     id="base"
     pagecolor="#ffffff"
     bordercolor="#666666"
     borderopacity="1.0"
     inkscape:pageopacity="0.0"
     inkscape:pageshadow="2"
     inkscape:zoom="0.11313709"
     inkscape:cx="-463.26803"
     inkscape:cy="2384.0152"
     inkscape:document-units="px"
     inkscape:current-layer="layer6"
     showgrid="false"
     units="ft"
     inkscape:window-width="2560"
     inkscape:window-height="1391"
     inkscape:window-x="0"
     inkscape:window-y="1"
     inkscape:window-maximized="1" />
  <metadata
     id="metadata7">
    <rdf:RDF>
      <cc:Work
         rdf:about="">
        <dc:format>image/svg+xml</dc:format>
        <dc:type
           rdf:resource="http://purl.org/dc/dcmitype/StillImage" />
        <dc:title />
      </cc:Work>
    </rdf:RDF>
  </metadata>
  <g
     inkscape:label="logo"
     inkscape:groupmode="layer"
     id="layer1"
     transform="translate(0,3267.6292)"
     style="display:inline"
     sodipodi:insensitive="true">
    <g
       style="display:inline"
       id="g5123"
       transform="matrix(0.52436572,0,0,0.52436572,1593.6848,-636.559)">
      <g
         transform="matrix(2.5146126,0,0,2.5146126,-2535.2841,-2627.656)"
         id="g4388">
        <path
           style="fill:#97bf0d"
           inkscape:connector-curvature="0"
           d="m 1978.051,691.65109 -1080.11474,0 c -101.45668,0 -183.534,-82.07732 -183.534,-183.534 l 0,-1080.1147 c 0,-101.45668 82.07732,-183.534 183.534,-183.534 l 1079.54474,0 c 101.4567,0 183.534,82.07732 183.534,183.534 l 0,1079.54472 c 0.57,102.02666 -81.5074,184.10398 -182.964,184.10398 z"
           id="path4302" />
        <g
           id="g4328"
           transform="matrix(5.6998137,0,0,5.6998137,-867.86602,-1725.6399)">
          <path
             style="fill:#ffffff"
             inkscape:connector-curvature="0"
             d="m 410.2,392.5 c -10.8,-2.1 -19,-5.3 -27.2,-9 -8.1,-3.8 -16.3,-8 -25.8,-14.9 -2.5,-1.9 -6.3,-4.8 -10.4,-9.1 -2,-2.2 -4.2,-4.6 -6.3,-7.4 -1.3,-1.8 -2.7,-3.8 -4.1,-5.7 -1.3,-2.3 -2.7,-4.6 -4,-6.9 -1.2,-2.4 -2.2,-5 -3.4,-7.4 -1,-2.6 -1.8,-5.3 -2.8,-8 -6.6,-21.8 -3.8,-48.9 9.8,-70.4 13.6,-21.5 37.7,-36.6 62.8,-38 12.5,-0.8 25,1.2 36.2,5.8 11.2,4.7 21,11.9 28.8,20.3 15.8,17 22.4,38.8 22.5,56.9 0,9.1 -1.2,17.4 -3.1,24.5 -1.1,3.5 -2.1,6.7 -3.3,9.7 -1.3,2.9 -2.3,5.6 -3.7,7.7 -1.2,2.2 -2.4,4.2 -3.5,6 -1.2,1.7 -2.1,3 -2.9,4.1 -0.8,1.1 -1.4,1.9 -1.8,2.6 -0.4,0.6 -0.7,0.8 -0.7,0.8 0,0 -1,1.1 -2.8,3.1 -0.9,1 -2,2.4 -3.4,3.6 -0.7,0.6 -1.4,1.4 -2.2,2.1 -0.8,0.6 -1.8,1.4 -2.7,2.1 -3.8,2.9 -8.9,5.7 -15.3,7.4 -6.4,1.7 -14.2,2.2 -22.5,0.5 -8.4,-1.7 -17.2,-5.5 -25.4,-11.6 -8,-6.1 -15.6,-14.3 -20.1,-24.5 -4.5,-10.1 -5.8,-21.6 -2.3,-32.9 1.3,-5.1 4.5,-10.4 8.1,-15.4 3.7,-5 8.2,-9.6 13.1,-13.8 9.8,-8.4 21.4,-15.2 33.6,-20.3 1.1,-0.5 0.9,-0.4 0.9,-0.5 l 0,0 0.1,1.2 0.3,2.6 0.4,5.1 c 0.2,3.4 0.3,6.7 0.3,10.1 -0.1,13.2 -1.7,26.5 -6.6,36.9 -2.4,5.1 -5.6,9.4 -9.4,12.4 -1,0.7 -2.1,1.4 -3,2 -1.1,0.5 -2.1,1.1 -3.3,1.6 -1.2,0.4 -2.3,0.8 -3.5,1.1 l -3.2,0.6 c -0.8,0.2 -1.7,0.2 -2.6,0.3 -0.7,0.1 -1.5,0.2 -2.2,0.2 l -0.1,0 c 0,-0.1 0.1,0.2 -0.1,-0.1 -0.5,-1.4 -0.9,-2.7 -1.2,-4 -1.2,-5.1 -1,-9.1 -0.5,-11.6 0.5,-2.3 1.2,-4 2.3,-6.9 1.1,-2.6 2.1,-4.9 3.1,-7.1 2.1,-4.3 4.3,-8.3 6.8,-12.1 4.9,-7.7 10.3,-15.3 16.9,-24.3 -10,4.7 -18.2,9.2 -26,15.9 -3.9,3.4 -7.7,7.4 -11,12.4 -1.6,2.5 -3.2,5.2 -4.5,8 -1.2,2.5 -3,6.5 -3.8,10.7 -0.9,4.5 -1.2,11.5 0.6,19.2 0.4,1.9 1.1,3.9 1.8,5.9 1.1,3.1 2.9,6.6 4.8,9.7 0.3,1.1 1.4,0.8 2.3,0.9 0.9,0.1 1.9,0.1 2.8,0.2 1.9,0.1 3.7,0.2 5.7,0.3 l 0.7,0 0.4,0 0.9,-0.1 1.8,-0.2 c 1.2,-0.1 2.4,-0.2 3.7,-0.4 1.6,-0.4 3.1,-0.6 4.7,-1 1.8,-0.5 3.6,-1.2 5.4,-1.7 1.8,-0.7 3.5,-1.7 5.3,-2.5 1.7,-1.1 3.4,-2.1 5,-3.3 6.3,-4.9 11.2,-11.6 14.5,-18.7 6.6,-14.3 8.1,-29.5 8.3,-44.3 0,-3.8 -0.1,-7.4 -0.4,-11.2 -0.1,-1.8 -0.3,-3.7 -0.4,-5.6 l -0.3,-2.8 -0.4,-4.1 c -0.4,-3.6 -1,-7.1 -1.6,-10.4 l -0.9,-5.1 -0.4,-2.6 c 0,-0.4 -0.3,0 -0.4,0 l -0.6,0.2 -1.2,0.5 -18.4,6.7 c -13.5,5.7 -26.5,13.2 -38,23.1 -5.7,5 -11,10.4 -15.6,16.5 -2.2,3.1 -4.5,6.3 -6.3,9.7 -1,1.7 -1.9,3.5 -2.7,5.4 -0.4,0.9 -0.8,2 -1.2,3.1 l -0.8,2.8 c -2.2,7.4 -3.1,15.5 -2.5,23.2 0.6,7.7 2.7,15.1 5.6,21.8 6,13.3 15.4,23.6 25.4,31.2 10.2,7.5 21.2,12.3 31.9,14.4 10.7,2.2 21.1,1.7 29.8,-0.6 8.7,-2.3 15.8,-6.3 20.9,-10.1 1.2,-1 2.5,-1.9 3.6,-2.9 1.1,-1 2.1,-1.9 2.9,-2.8 1.9,-1.7 3.1,-3.2 4.2,-4.5 2.1,-2.5 3.3,-3.8 3.3,-3.8 0,0 0.3,-0.4 0.8,-1 0.5,-0.6 1.2,-1.7 2.2,-3 1,-1.4 2.1,-3 3.6,-5 1.2,-2 2.6,-4.5 4.2,-7.2 1.6,-2.7 2.9,-6 4.5,-9.4 1.4,-3.5 2.7,-7.4 4,-11.6 2.3,-8.5 3.8,-18.4 3.8,-29.3 0,-10.9 -2.1,-22.9 -6.4,-34.8 -4.4,-11.9 -11.2,-23.6 -20.6,-33.8 -9.4,-10.2 -21.1,-18.8 -34.7,-24.5 -13.5,-5.5 -28.5,-8 -43.6,-7 -30.2,1.7 -59.4,19.8 -75.7,45.8 -8.2,13 -13.2,27.7 -15.1,42.4 -1.9,14.7 -0.6,29.3 3.3,42.5 1.2,3.2 2.1,6.5 3.3,9.7 1.4,3 2.7,6.1 4.1,9 1.6,2.9 3.2,5.6 4.8,8.3 1.7,2.3 3.3,4.7 4.9,6.9 2.6,3.3 5.3,6.2 7.7,8.8 5,5.1 9.5,8.6 12.6,10.8 11.4,8.2 22.2,11.8 32.3,13.1 10.3,1.2 20.1,0.1 30.5,-3.2 z"
             id="path4330" />
        </g>
      </g>
      <g
         transform="matrix(1.9728286,0,0,1.9728286,-5161.827,-669.67131)"
         id="g4373">
        <g
           id="g4304"
           transform="matrix(5.6998137,0,0,5.6998137,-867.86602,-1725.6399)">
          <path
             style="fill:#97bf0d"
             inkscape:connector-curvature="0"
             d="m 545.6,381.5 0,-15.3 49.7,-54.8 -47,0 0,-14 64.8,0 0,14.8 -50.3,55.2 51.9,0 0,14.1 -69.1,0 0,0 z"
             id="path4306" />
          <path
             style="fill:#97bf0d"
             inkscape:connector-curvature="0"
             d="m 643.9,345.1 c 0.3,5.2 0.9,9.3 1.9,12.4 1,3.1 2.5,5.6 4.5,7.3 2,1.7 4.5,2.9 7.6,3.5 3.1,0.6 6.8,0.9 11.3,0.9 2.6,0 5.3,-0.2 8.1,-0.7 2.8,-0.5 5.4,-1 7.9,-1.7 2.5,-0.7 4.8,-1.3 6.8,-2 2.1,-0.7 8,-3 9.2,-3.4 l 0,15.2 c -1.8,0.9 -4.1,1.7 -6.7,2.5 -2.6,0.8 -5.4,1.5 -8.4,2.1 -3,0.6 -6.1,1.1 -9.4,1.5 -3.2,0.4 -6.4,0.6 -9.4,0.6 -6.5,0 -12.4,-0.5 -17.4,-1.6 -5.1,-1 -9.3,-3.1 -12.8,-6.2 -3.5,-3.1 -6.2,-7.4 -8,-13 -1.8,-5.5 -2.8,-12.9 -2.8,-21.9 0,-9.4 1,-17.1 2.9,-22.9 2,-5.9 4.7,-10.4 8.3,-13.6 3.5,-3.2 7.7,-5.4 12.6,-6.6 4.8,-1.1 10.2,-1.7 16,-1.7 6.3,0 11.9,0.6 16.7,1.8 4.8,1.2 8.9,3.4 12.2,6.6 3.3,3.2 5.8,7.5 7.6,13 1.7,5.5 2.6,12.6 2.6,21.2 l 0,6.7 -61.3,0 0,0 z m 43.5,-14.2 c -0.3,-4.5 -0.9,-8.2 -1.8,-11 -1,-2.8 -2.3,-5 -4.1,-6.5 -1.7,-1.5 -3.9,-2.6 -6.4,-3.1 -2.5,-0.5 -5.5,-0.8 -9,-0.8 -3.1,0 -5.9,0.2 -8.5,0.5 -2.6,0.3 -4.8,1.2 -6.8,2.6 -2,1.4 -3.5,3.5 -4.7,6.4 -1.2,2.9 -1.9,6.9 -2.2,11.9 l 43.5,0 z"
             id="path4308" />
          <path
             style="fill:#97bf0d"
             inkscape:connector-curvature="0"
             d="m 736.9,381.5 0,-70.1 -25.8,0 0,-14 70.6,0 0,14 -27.5,0 0,70.1 -17.3,0 z"
             id="path4310" />
          <path
             style="fill:#97bf0d"
             inkscape:connector-curvature="0"
             d="m 869,381.7 c -5.6,-0.6 -11.1,-2 -13.8,-3.9 -2.7,-1.9 -4.5,-5 -5.4,-9.3 -2.7,4.6 -6.3,8.2 -10.8,10.6 -4.5,2.4 -9.9,3.7 -16.2,3.7 -5,0 -9.5,-0.4 -13.7,-1.2 -4.2,-0.8 -7.7,-2.2 -10.7,-4.1 -3,-2 -5.3,-4.6 -6.9,-8 -1.7,-3.4 -2.5,-7.6 -2.5,-12.6 0,-5.8 0.8,-10.5 2.5,-14.3 1.7,-3.8 4,-6.7 6.9,-9 3,-2.2 6.5,-3.8 10.7,-4.7 4.1,-0.9 8.7,-1.3 13.7,-1.3 l 20.7,0 c -0.3,-4.2 -0.8,-7.5 -1.5,-9.9 -0.7,-2.4 -1.9,-4.2 -3.3,-5.4 -1.5,-1.2 -3.4,-1.9 -5.8,-2.2 -2.4,-0.3 -5.4,-0.5 -9,-0.5 -2.6,0 -5.2,0.2 -7.7,0.5 -2.5,0.4 -4.9,0.8 -7.1,1.3 -2.2,0.5 -4.3,1.1 -6.1,1.6 -1.8,0.5 -7.7,2.6 -8.9,3 l 0,-15 c 3.7,-1.7 8.1,-3.1 13.2,-4.1 5.2,-1 10.8,-1.4 16.9,-1.4 7.1,0 13,0.5 17.8,1.6 4.8,1 8.6,3.1 11.4,6.2 2.8,3.1 4.9,7.4 6.1,13.1 1.2,5.7 1.8,13.1 1.8,22.4 l 0,2.1 0,14.7 c 0,4.3 0.6,7.3 1.8,9 1.2,1.7 3.2,2.8 6,3.3 l -0.1,13.8 z m -25.4,-39.9 -20.8,0 c -2.5,0 -4.8,0.2 -6.9,0.5 -2.1,0.3 -3.8,1 -5.4,2 -1.5,1 -2.7,2.6 -3.5,4.5 -0.8,2 -1.2,4.7 -1.2,8.1 0,2.6 0.4,4.7 1.3,6.3 0.9,1.6 2,2.8 3.5,3.5 1.5,0.8 3.3,1.3 5.4,1.6 2.1,0.3 4.4,0.4 6.9,0.4 4.5,0 8,-0.6 10.7,-1.7 2.7,-1.1 4.8,-2.8 6.3,-5.1 1.5,-2.3 2.5,-5 2.9,-8.3 0.5,-3.3 0.7,-7.1 0.7,-11.5 l 0.1,-0.3 0,0 z"
             id="path4312" />
        </g>
        <path
           style="fill:#97bf0d"
           inkscape:connector-curvature="0"
           d="m 2375.328,688.2312 -20.5194,-50.72834 -73.5276,0 -19.9493,50.72834 -18.8094,0 64.9779,-161.87471 21.6593,0 64.9779,161.87471 -18.8094,0 z m -46.7385,-116.2762 -9.6897,-30.77899 -1.7099,0 -9.6897,30.77899 -21.0893,52.43829 63.2679,0 -21.0893,-52.43829 z"
           id="path4314" />
        <path
           style="fill:#97bf0d"
           inkscape:connector-curvature="0"
           d="m 2510.4136,688.2312 0,-161.87471 17.6694,0 0,147.0552 96.3268,0 0,14.81951 -113.9962,0 z"
           id="path4316" />
        <path
           style="fill:#97bf0d"
           inkscape:connector-curvature="0"
           d="m 2759.4954,688.2312 0,-161.87471 17.6694,0 0,147.0552 96.3269,0 0,14.81951 -113.9963,0 z"
           id="path4318" />
        <path
           style="fill:#97bf0d"
           inkscape:connector-curvature="0"
           d="m 3011.4272,688.2312 0,-161.87471 18.2394,0 0,161.87471 -18.2394,0 z"
           id="path4320" />
        <path
           style="fill:#97bf0d"
           inkscape:connector-curvature="0"
           d="m 3298.1278,688.2312 -20.5193,-50.72834 -73.5276,0 -19.9494,50.72834 -18.2394,0 64.9779,-161.87471 21.6593,0 64.9779,161.87471 -19.3794,0 z m -46.7385,-116.2762 -9.6896,-30.77899 -1.71,0 -9.6897,30.77899 -21.0893,52.43829 63.268,0 -21.0894,-52.43829 z"
           id="path4322" />
        <path
           style="fill:#97bf0d"
           inkscape:connector-curvature="0"
           d="m 3548.3496,688.2312 -95.7568,-137.36551 0,137.36551 -17.0995,0 0,-161.87471 19.9494,0 95.7568,136.79553 0,-136.79553 17.0995,0 0,161.87471 -19.9494,0 z"
           id="path4324" />
        <path
           style="fill:#97bf0d"
           inkscape:connector-curvature="0"
           d="m 3962.7261,688.2312 0,-161.87471 120.836,0 0,14.24954 -102.5966,0 0,56.42815 81.5073,0 0,14.24954 -81.5073,0 0,62.12797 102.5966,0 0,14.81951 -120.836,0 z"
           id="path4326" />
        <path
           style="fill:#97bf0d"
           inkscape:connector-curvature="0"
           d="m 3828.2105,667.14189 c -2.2799,0.56998 -5.1298,1.70995 -8.5497,2.84991 -3.4199,1.13996 -7.9798,2.27992 -11.9696,3.41989 -4.5599,1.13996 -9.1197,1.70994 -14.2496,2.8499 -5.1298,0.56998 -10.2596,1.13997 -15.3895,1.13997 -9.1197,0 -17.6694,-0.56999 -25.0792,-1.70995 -7.9797,-1.13996 -14.2495,-3.98987 -19.9493,-8.54972 -5.6998,-4.55985 -10.2597,-11.39963 -13.1096,-21.08931 -3.4199,-9.1197 -4.5598,-22.22927 -4.5598,-38.18875 0,-15.95948 1.7099,-28.49907 4.5598,-38.18875 3.4199,-9.1197 7.4098,-16.52946 13.1096,-21.08931 5.6998,-4.55985 12.5396,-7.40976 19.9493,-9.11971 7.9798,-1.13996 15.9595,-1.70994 25.0792,-1.70994 10.2597,0 19.3794,1.13996 27.9291,3.41989 7.9798,2.27992 14.2495,3.98987 19.3794,5.69981 l 0,-16.52946 c -13.1096,-4.55985 -29.0691,-6.83977 -47.8785,-6.83977 -12.5395,0 -23.9392,1.13996 -33.6289,3.41988 -10.2596,2.27993 -18.8093,6.2698 -25.6491,11.96961 -6.8398,6.2698 -12.5396,14.81952 -16.5295,25.64916 -3.9898,10.82965 -5.6998,25.64917 -5.6998,43.31859 0,17.66942 1.71,32.48894 5.6998,43.31858 3.9899,10.82965 9.1197,19.37937 16.5295,25.64916 6.8398,6.2698 15.3895,10.25967 25.6491,11.96961 10.2597,2.27993 21.0894,3.41989 33.6289,3.41989 11.9697,0 22.7993,-1.13996 33.059,-2.84991 6.2698,-1.13996 11.9696,-2.8499 17.0994,-4.55985 l 0.57,-17.66942 0,0 z"
           id="path4332" />
      </g>
    </g>
  </g>
  <g
     inkscape:groupmode="layer"
     id="layer6"
     inkscape:label="claim"
     style="display:inline"
     sodipodi:insensitive="true">
    <g
       id="layer4"
       inkscape:label="claim"
       transform="matrix(1.6999526,0,0,1.6999526,325.31819,-1458.0313)">
      <g
         transform="matrix(1.0457246,0,0,1.0457246,-49.34862,-81.0631)"
         style="font-style:normal;font-variant:normal;font-weight:normal;font-stretch:normal;font-size:30px;line-height:125%;font-family:Titillium;-inkscape-font-specification:'Titillium, Normal';text-align:start;letter-spacing:0px;word-spacing:0px;writing-mode:lr-tb;text-anchor:start;fill:#666666;fill-opacity:1;stroke:none;stroke-width:1px;stroke-linecap:butt;stroke-linejoin:miter;stroke-opacity:1"
         id="flowRoot9549">
        <path
           d="m 464.78281,2800.3477 7.6,0 5,-17.8 29.6,0 5,17.8 7.6,0 -19,-69.2 -16.8,0 -19,69.2 z m 24.8,-62.6 5.2,0 10.5,37.9 -26.2,0 10.5,-37.9 z"
           style="font-style:normal;font-variant:normal;font-weight:normal;font-stretch:normal;font-size:100px;line-height:100%;font-family:Titillium;-inkscape-font-specification:'Titillium, Normal';text-align:center;writing-mode:lr-tb;text-anchor:middle;fill:#666666"
           id="path9566"
           inkscape:connector-curvature="0" />
        <path
           d="m 536.65313,2800.3477 0,-40.6 c 0,0 6.9,-3.7 14.09999,-3.7 9.30001,0 10.80001,4.9 10.80001,18.1 l 0,26.2 7.39999,0 0,-26.4 c 0,-17.8 -3.1,-24.6 -16.89999,-24.6 -7.4,0 -15.5,4.5 -15.5,4.5 l 0,-3.5 -7.4,0 0,50 7.5,0 z"
           style="font-style:normal;font-variant:normal;font-weight:normal;font-stretch:normal;font-size:100px;line-height:100%;font-family:Titillium;-inkscape-font-specification:'Titillium, Normal';text-align:center;writing-mode:lr-tb;text-anchor:middle;fill:#666666"
           id="path9568"
           inkscape:connector-curvature="0" />
        <path
           d="m 640.23437,2765.4477 c 0,-10.9 -4.79999,-16.1 -16.1,-16.1 -8.6,0 -19.6,2.2 -19.6,2.2 l 0.30001,5.7 c 0,0 11.89999,-1.3 18.89999,-1.3 6,0 9,2.5 9,9.5 l 0,4.3 -15.7,1.5 c -10.3,1 -15.3,5.2 -15.3,14.8 0,10.1 5,15.3 14.10001,15.3 9,0 18,-4 18,-4 3,3 6.6,4 11.89999,4 l 0.3,-5.9 c -3.19999,-0.4 -5.59999,-1.5 -5.8,-4.4 l 0,-25.6 z m -7.5,10 0,16.5 c 0,0 -8.29999,3.1 -15.7,3.1 -5.09999,0 -7.59999,-3.4 -7.59999,-9.2 0,-5.5 2.4,-8.4 8.5,-9 l 14.79999,-1.4 z"
           style="font-style:normal;font-variant:normal;font-weight:normal;font-stretch:normal;font-size:100px;line-height:100%;font-family:Titillium;-inkscape-font-specification:'Titillium, Normal';text-align:center;writing-mode:lr-tb;text-anchor:middle;fill:#666666"
           id="path9570"
           inkscape:connector-curvature="0" />
        <path
           d="m 655.53437,2800.3477 7.5,0 0,-71.8 -7.5,0 0,71.8 z"
           style="font-style:normal;font-variant:normal;font-weight:normal;font-stretch:normal;font-size:100px;line-height:100%;font-family:Titillium;-inkscape-font-specification:'Titillium, Normal';text-align:center;writing-mode:lr-tb;text-anchor:middle;fill:#666666"
           id="path9572"
           inkscape:connector-curvature="0" />
        <path
           d="m 678.58125,2800.3477 7.5,0 0,-71.8 -7.5,0 0,71.8 z"
           style="font-style:normal;font-variant:normal;font-weight:normal;font-stretch:normal;font-size:100px;line-height:100%;font-family:Titillium;-inkscape-font-specification:'Titillium, Normal';text-align:center;writing-mode:lr-tb;text-anchor:middle;fill:#666666"
           id="path9574"
           inkscape:connector-curvature="0" />
        <path
           d="m 701.02813,2800.3477 7.5,0 0,-50 -7.5,0 0,50 z m 0,-61.3 7.5,0 0,-8.7 -7.5,0 0,8.7 z"
           style="font-style:normal;font-variant:normal;font-weight:normal;font-stretch:normal;font-size:100px;line-height:100%;font-family:Titillium;-inkscape-font-specification:'Titillium, Normal';text-align:center;writing-mode:lr-tb;text-anchor:middle;fill:#666666"
           id="path9576"
           inkscape:connector-curvature="0" />
        <path
           d="m 758.20312,2765.4477 c 0,-10.9 -4.79999,-16.1 -16.1,-16.1 -8.6,0 -19.6,2.2 -19.6,2.2 l 0.30001,5.7 c 0,0 11.89999,-1.3 18.89999,-1.3 6,0 9,2.5 9,9.5 l 0,4.3 -15.7,1.5 c -10.3,1 -15.3,5.2 -15.3,14.8 0,10.1 5,15.3 14.10001,15.3 9,0 18,-4 18,-4 3,3 6.6,4 11.89999,4 l 0.3,-5.9 c -3.19999,-0.4 -5.59999,-1.5 -5.8,-4.4 l 0,-25.6 z m -7.5,10 0,16.5 c 0,0 -8.29999,3.1 -15.7,3.1 -5.09999,0 -7.59999,-3.4 -7.59999,-9.2 0,-5.5 2.4,-8.4 8.5,-9 l 14.79999,-1.4 z"
           style="font-style:normal;font-variant:normal;font-weight:normal;font-stretch:normal;font-size:100px;line-height:100%;font-family:Titillium;-inkscape-font-specification:'Titillium, Normal';text-align:center;writing-mode:lr-tb;text-anchor:middle;fill:#666666"
           id="path9578"
           inkscape:connector-curvature="0" />
        <path
           d="m 780.40313,2800.3477 0,-40.6 c 0,0 6.9,-3.7 14.09999,-3.7 9.30001,0 10.80001,4.9 10.80001,18.1 l 0,26.2 7.39999,0 0,-26.4 c 0,-17.8 -3.1,-24.6 -16.89999,-24.6 -7.4,0 -15.5,4.5 -15.5,4.5 l 0,-3.5 -7.4,0 0,50 7.5,0 z"
           style="font-style:normal;font-variant:normal;font-weight:normal;font-stretch:normal;font-size:100px;line-height:100%;font-family:Titillium;-inkscape-font-specification:'Titillium, Normal';text-align:center;writing-mode:lr-tb;text-anchor:middle;fill:#666666"
           id="path9580"
           inkscape:connector-curvature="0" />
        <path
           d="m 845.31406,2749.3477 c -14.9,0 -20.8,7 -20.8,25.1 0,19.6 4.7,26.9 20.6,26.9 4.6,0 13.9,-1.4 13.9,-1.4 l -0.3,-6.2 c 0,0 -8,0.9 -11.8,0.9 -12.4,0 -14.7,-5.4 -14.7,-20.2 0,-13.4 3.1,-18.4 14.6,-18.4 3.8,0 11.8,0.9 11.8,0.9 l 0.3,-6.1 c 0,0 -9,-1.5 -13.6,-1.5 z"
           style="font-style:normal;font-variant:normal;font-weight:normal;font-stretch:normal;font-size:100px;line-height:100%;font-family:Titillium;-inkscape-font-specification:'Titillium, Normal';text-align:center;writing-mode:lr-tb;text-anchor:middle;fill:#666666"
           id="path9582"
           inkscape:connector-curvature="0" />
        <path
           d="m 888.08281,2794.7477 c -9.8,0 -13.1,-5.6 -13.1,-16.3 l 33,0 0.4,-5.7 c 0,-16.4 -6.8,-23.4 -20.1,-23.4 -12.7,0 -20.9,7.3 -20.9,26.3 0,17 4.9,25.7 19.8,25.7 8.1,0 19.5,-1.6 19.5,-1.6 l -0.2,-5.9 c 0,0 -10.9,0.9 -18.4,0.9 z m -13.2,-22.3 c 0.1,-12.1 4.9,-16.8 13.4,-16.8 8.8,0 12.6,4.4 12.6,16.8 l -26,0 z"
           style="font-style:normal;font-variant:normal;font-weight:normal;font-stretch:normal;font-size:100px;line-height:100%;font-family:Titillium;-inkscape-font-specification:'Titillium, Normal';text-align:center;writing-mode:lr-tb;text-anchor:middle;fill:#666666"
           id="path9584"
           inkscape:connector-curvature="0" />
        <path
           d="m 961.43906,2749.3477 c -15.8,0 -21.4,8.2 -21.4,25.4 0,18.2 4.6,26.6 21.4,26.6 16.9,0 21.4,-8.4 21.4,-26.6 0,-17.2 -5.5,-25.4 -21.4,-25.4 z m 0,45.5 c -11.8,0 -13.7,-5.9 -13.7,-20.1 0,-13.9 3.1,-18.9 13.7,-18.9 10.7,0 13.7,5 13.7,18.9 0,14.2 -1.8,20.1 -13.7,20.1 z"
           style="font-style:normal;font-variant:normal;font-weight:normal;font-stretch:normal;font-size:100px;line-height:100%;font-family:Titillium;-inkscape-font-specification:'Titillium, Normal';text-align:center;writing-mode:lr-tb;text-anchor:middle;fill:#666666"
           id="path9586"
           inkscape:connector-curvature="0" />
        <path
           d="m 1004.7687,2756.8477 14.5,0 0,-6.5 -14.5,0 0,-4.4 c 0,-9.3 1.8001,-11.7 7.4001,-11.7 3,0 8.5999,0.2 8.5999,0.2 l 0.1,-6.2 c 0,0 -6.6999,-0.7 -10.1,-0.7 -9.8,0 -13.49995,3.9 -13.49995,18.3 l 0,4.5 -6.3,0 0,6.5 6.3,0 0,43.5 7.49995,0 0,-43.5 z"
           style="font-style:normal;font-variant:normal;font-weight:normal;font-stretch:normal;font-size:100px;line-height:100%;font-family:Titillium;-inkscape-font-specification:'Titillium, Normal';text-align:center;writing-mode:lr-tb;text-anchor:middle;fill:#666666"
           id="path9588"
           inkscape:connector-curvature="0" />
        <path
           d="m 1081.4469,2750.3477 0,40.6 c 0,0 -6.3,3.7 -13.7,3.7 -9.3,0 -10.5,-4.5 -10.5,-18.3 l 0,-26 -7.5,0 0,26.1 c 0,18.4 2.9,24.9 16.9,24.9 7.3,0 14.8,-4.5 14.8,-4.5 l 0,3.5 7.5,0 0,-50 -7.5,0 z"
           style="font-style:normal;font-variant:normal;font-weight:normal;font-stretch:normal;font-size:100px;line-height:100%;font-family:Titillium;-inkscape-font-specification:'Titillium, Normal';text-align:center;writing-mode:lr-tb;text-anchor:middle;fill:#666666"
           id="path9590"
           inkscape:connector-curvature="0" />
        <path
           d="m 1136.7719,2751.2477 c 0,0 -10.6,-1.9 -18.1,-1.9 -9.1,0 -18,3.6 -18,14.6 0,10 5.4,12.1 16.7,13.9 10.9,1.7 13.5,3 13.5,8.2 0,6.8 -4.4,8.6 -12.6,8.6 -5.1,0 -16.5,-1.7 -16.5,-1.7 l -0.4,6.5 c 0,0 11.2,1.9 17.6,1.9 12,0 19.4,-3.9 19.4,-15.6 0,-9.7 -4.7,-12.2 -17.2,-14.3 -10.6,-1.8 -13,-3.1 -13,-7.8 0,-5.9 4.7,-7.6 10.9,-7.6 6.4,0 17.5,1.6 17.5,1.6 l 0.2,-6.4 z"
           style="font-style:normal;font-variant:normal;font-weight:normal;font-stretch:normal;font-size:100px;line-height:100%;font-family:Titillium;-inkscape-font-specification:'Titillium, Normal';text-align:center;writing-mode:lr-tb;text-anchor:middle;fill:#666666"
           id="path9592"
           inkscape:connector-curvature="0" />
        <path
           d="m 1168.3563,2794.7477 c -9.8,0 -13.1,-5.6 -13.1,-16.3 l 33,0 0.4,-5.7 c 0,-16.4 -6.8,-23.4 -20.1,-23.4 -12.7,0 -20.9,7.3 -20.9,26.3 0,17 4.9,25.7 19.8,25.7 8.1,0 19.5,-1.6 19.5,-1.6 l -0.2,-5.9 c 0,0 -10.9,0.9 -18.4,0.9 z m -13.2,-22.3 c 0.1,-12.1 4.9,-16.8 13.4,-16.8 8.8,0 12.6,4.4 12.6,16.8 l -26,0 z"
           style="font-style:normal;font-variant:normal;font-weight:normal;font-stretch:normal;font-size:100px;line-height:100%;font-family:Titillium;-inkscape-font-specification:'Titillium, Normal';text-align:center;writing-mode:lr-tb;text-anchor:middle;fill:#666666"
           id="path9594"
           inkscape:connector-curvature="0" />
        <path
           d="m 1200.4422,2800.3477 7.5,0 0,-36.7 c 0,0 8.8,-4.9 18.2,-6.8 l 0,-7.6 c -9.6,1.9 -18.3,7.9 -18.3,7.9 l 0,-6.8 -7.4,0 0,50 z"
           style="font-style:normal;font-variant:normal;font-weight:normal;font-stretch:normal;font-size:100px;line-height:100%;font-family:Titillium;-inkscape-font-specification:'Titillium, Normal';text-align:center;writing-mode:lr-tb;text-anchor:middle;fill:#666666"
           id="path9596"
           inkscape:connector-curvature="0" />
        <path
           d="m 1268.4125,2751.2477 c 0,0 -10.6,-1.9 -18.1,-1.9 -9.1,0 -18,3.6 -18,14.6 0,10 5.4,12.1 16.7,13.9 10.9,1.7 13.5,3 13.5,8.2 0,6.8 -4.4,8.6 -12.6,8.6 -5.1,0 -16.5,-1.7 -16.5,-1.7 l -0.4,6.5 c 0,0 11.2,1.9 17.6,1.9 12,0 19.4,-3.9 19.4,-15.6 0,-9.7 -4.7,-12.2 -17.2,-14.3 -10.6,-1.8 -13,-3.1 -13,-7.8 0,-5.9 4.7,-7.6 10.9,-7.6 6.4,0 17.5,1.6 17.5,1.6 l 0.2,-6.4 z"
           style="font-style:normal;font-variant:normal;font-weight:normal;font-stretch:normal;font-size:100px;line-height:100%;font-family:Titillium;-inkscape-font-specification:'Titillium, Normal';text-align:center;writing-mode:lr-tb;text-anchor:middle;fill:#666666"
           id="path9598"
           inkscape:connector-curvature="0" />
        <path
           d="m 1277.6969,2812.6477 6.2,0 6.7,-23 -8.3,0 -4.6,23 z"
           style="font-style:normal;font-variant:normal;font-weight:normal;font-stretch:normal;font-size:100px;line-height:100%;font-family:Titillium;-inkscape-font-specification:'Titillium, Normal';text-align:center;writing-mode:lr-tb;text-anchor:middle;fill:#666666"
           id="path9600"
           inkscape:connector-curvature="0" />
        <path
           d="m 1325.8328,2822.5477 7.5,0 0,-22.3 c 1.4,0.3 6.5,1.1 11.2,1.1 15.4,0 21.8,-7 21.8,-26.6 0,-17.7 -5.5,-25.4 -18.1,-25.4 -7.4,0 -15,4.6 -15,4.6 l 0,-3.6 -7.4,0 0,72.2 z m 21.3,-66.5 c 7.3,0 11.6,5 11.6,18.7 0,14.4 -3.6,20.1 -14.6,20.1 -4.3,0 -9.5,-0.9 -10.8,-1.1 l 0,-33.7 c 0,0 7,-4 13.8,-4 z"
           style="font-style:normal;font-variant:normal;font-weight:normal;font-stretch:normal;font-size:100px;line-height:100%;font-family:Titillium;-inkscape-font-specification:'Titillium, Normal';text-align:center;writing-mode:lr-tb;text-anchor:middle;fill:#666666"
           id="path9602"
           inkscape:connector-curvature="0" />
        <path
           d="m 1413.8672,2765.4477 c 0,-10.9 -4.8,-16.1 -16.1,-16.1 -8.6,0 -19.6,2.2 -19.6,2.2 l 0.3,5.7 c 0,0 11.9,-1.3 18.9,-1.3 6,0 9,2.5 9,9.5 l 0,4.3 -15.7,1.5 c -10.3,1 -15.3,5.2 -15.3,14.8 0,10.1 5,15.3 14.1,15.3 9,0 18,-4 18,-4 3,3 6.6,4 11.9,4 l 0.3,-5.9 c -3.2,-0.4 -5.6,-1.5 -5.8,-4.4 l 0,-25.6 z m -7.5,10 0,16.5 c 0,0 -8.3,3.1 -15.7,3.1 -5.1,0 -7.6,-3.4 -7.6,-9.2 0,-5.5 2.4,-8.4 8.5,-9 l 14.8,-1.4 z"
           style="font-style:normal;font-variant:normal;font-weight:normal;font-stretch:normal;font-size:100px;line-height:100%;font-family:Titillium;-inkscape-font-specification:'Titillium, Normal';text-align:center;writing-mode:lr-tb;text-anchor:middle;fill:#666666"
           id="path9604"
           inkscape:connector-curvature="0" />
        <path
           d="m 1428.5672,2800.3477 7.5,0 0,-36.7 c 0,0 8.8,-4.9 18.2,-6.8 l 0,-7.6 c -9.6,1.9 -18.3,7.9 -18.3,7.9 l 0,-6.8 -7.4,0 0,50 z"
           style="font-style:normal;font-variant:normal;font-weight:normal;font-stretch:normal;font-size:100px;line-height:100%;font-family:Titillium;-inkscape-font-specification:'Titillium, Normal';text-align:center;writing-mode:lr-tb;text-anchor:middle;fill:#666666"
           id="path9606"
           inkscape:connector-curvature="0" />
        <path
           d="m 1489.0375,2756.8477 0,-6.5 -15.9,0 0,-15.3 -7.4,0 0,15.3 -7.1,0 0,6.5 7.1,0 0,26.3 c 0,14.4 3.5,18.3 13.8,18.3 3.5,0 10.2,-1.1 10.2,-1.1 l -0.5,-6.2 c 0,0 -6.1,0.6 -8.9,0.6 -6.5,0 -7.2,-3.1 -7.2,-14 l 0,-23.9 15.9,0 z"
           style="font-style:normal;font-variant:normal;font-weight:normal;font-stretch:normal;font-size:100px;line-height:100%;font-family:Titillium;-inkscape-font-specification:'Titillium, Normal';text-align:center;writing-mode:lr-tb;text-anchor:middle;fill:#666666"
           id="path9608"
           inkscape:connector-curvature="0" />
        <path
           d="m 1505.7938,2800.3477 0,-40.6 c 0,0 6.9,-3.7 14.1,-3.7 9.3,0 10.8,4.9 10.8,18.1 l 0,26.2 7.4,0 0,-26.4 c 0,-17.8 -3.1,-24.6 -16.9,-24.6 -7.4,0 -15.5,4.5 -15.5,4.5 l 0,-3.5 -7.4,0 0,50 7.5,0 z"
           style="font-style:normal;font-variant:normal;font-weight:normal;font-stretch:normal;font-size:100px;line-height:100%;font-family:Titillium;-inkscape-font-specification:'Titillium, Normal';text-align:center;writing-mode:lr-tb;text-anchor:middle;fill:#666666"
           id="path9610"
           inkscape:connector-curvature="0" />
        <path
           d="m 1570.5047,2794.7477 c -9.8,0 -13.1,-5.6 -13.1,-16.3 l 33,0 0.4,-5.7 c 0,-16.4 -6.8,-23.4 -20.1,-23.4 -12.7,0 -20.9,7.3 -20.9,26.3 0,17 4.9,25.7 19.8,25.7 8.1,0 19.5,-1.6 19.5,-1.6 l -0.2,-5.9 c 0,0 -10.9,0.9 -18.4,0.9 z m -13.2,-22.3 c 0.1,-12.1 4.9,-16.8 13.4,-16.8 8.8,0 12.6,4.4 12.6,16.8 l -26,0 z"
           style="font-style:normal;font-variant:normal;font-weight:normal;font-stretch:normal;font-size:100px;line-height:100%;font-family:Titillium;-inkscape-font-specification:'Titillium, Normal';text-align:center;writing-mode:lr-tb;text-anchor:middle;fill:#666666"
           id="path9612"
           inkscape:connector-curvature="0" />
        <path
           d="m 1602.5906,2800.3477 7.5,0 0,-36.7 c 0,0 8.8,-4.9 18.2,-6.8 l 0,-7.6 c -9.6,1.9 -18.3,7.9 -18.3,7.9 l 0,-6.8 -7.4,0 0,50 z"
           style="font-style:normal;font-variant:normal;font-weight:normal;font-stretch:normal;font-size:100px;line-height:100%;font-family:Titillium;-inkscape-font-specification:'Titillium, Normal';text-align:center;writing-mode:lr-tb;text-anchor:middle;fill:#666666"
           id="path9614"
           inkscape:connector-curvature="0" />
        <path
           d="m 1670.5609,2751.2477 c 0,0 -10.6,-1.9 -18.1,-1.9 -9.1,0 -18,3.6 -18,14.6 0,10 5.4,12.1 16.7,13.9 10.9,1.7 13.5,3 13.5,8.2 0,6.8 -4.4,8.6 -12.6,8.6 -5.1,0 -16.5,-1.7 -16.5,-1.7 l -0.4,6.5 c 0,0 11.2,1.9 17.6,1.9 12,0 19.4,-3.9 19.4,-15.6 0,-9.7 -4.7,-12.2 -17.2,-14.3 -10.6,-1.8 -13,-3.1 -13,-7.8 0,-5.9 4.7,-7.6 10.9,-7.6 6.4,0 17.5,1.6 17.5,1.6 l 0.2,-6.4 z"
           style="font-style:normal;font-variant:normal;font-weight:normal;font-stretch:normal;font-size:100px;line-height:100%;font-family:Titillium;-inkscape-font-specification:'Titillium, Normal';text-align:center;writing-mode:lr-tb;text-anchor:middle;fill:#666666"
           id="path9616"
           inkscape:connector-curvature="0" />
        <path
           d="m 1679.8453,2812.6477 6.2,0 6.7,-23 -8.3,0 -4.6,23 z"
           style="font-style:normal;font-variant:normal;font-weight:normal;font-stretch:normal;font-size:100px;line-height:100%;font-family:Titillium;-inkscape-font-specification:'Titillium, Normal';text-align:center;writing-mode:lr-tb;text-anchor:middle;fill:#666666"
           id="path9618"
           inkscape:connector-curvature="0" />
        <path
           d="m 464.94141,2865.4477 c 0,-10.9 -4.8,-16.1 -16.1,-16.1 -8.6,0 -19.6,2.2 -19.6,2.2 l 0.3,5.7 c 0,0 11.9,-1.3 18.9,-1.3 6,0 9,2.5 9,9.5 l 0,4.3 -15.7,1.5 c -10.3,1 -15.3,5.2 -15.3,14.8 0,10.1 5,15.3 14.1,15.3 9,0 18,-4 18,-4 3,3 6.6,4 11.9,4 l 0.3,-5.9 c -3.2,-0.4 -5.6,-1.5 -5.8,-4.4 l 0,-25.6 z m -7.5,10 0,16.5 c 0,0 -8.3,3.1 -15.7,3.1 -5.1,0 -7.6,-3.4 -7.6,-9.2 0,-5.5 2.4,-8.4 8.5,-9 l 14.8,-1.4 z"
           style="font-style:normal;font-variant:normal;font-weight:normal;font-stretch:normal;font-size:100px;line-height:100%;font-family:Titillium;-inkscape-font-specification:'Titillium, Normal';text-align:center;writing-mode:lr-tb;text-anchor:middle;fill:#666666"
           id="path9620"
           inkscape:connector-curvature="0" />
        <path
           d="m 487.14141,2900.3477 0,-40.6 c 0,0 6.9,-3.7 14.1,-3.7 9.3,0 10.8,4.9 10.8,18.1 l 0,26.2 7.4,0 0,-26.4 c 0,-17.8 -3.1,-24.6 -16.9,-24.6 -7.4,0 -15.5,4.5 -15.5,4.5 l 0,-3.5 -7.4,0 0,50 7.5,0 z"
           style="font-style:normal;font-variant:normal;font-weight:normal;font-stretch:normal;font-size:100px;line-height:100%;font-family:Titillium;-inkscape-font-specification:'Titillium, Normal';text-align:center;writing-mode:lr-tb;text-anchor:middle;fill:#666666"
           id="path9622"
           inkscape:connector-curvature="0" />
        <path
           d="m 571.75234,2828.5477 -7.4,0 0,22.1 c -1.5,-0.3 -8,-1.3 -12.3,-1.3 -15.2,0 -20.9,8.8 -20.9,26.4 0,21.6 8.2,25.6 18,25.6 7.5,0 15.2,-4.4 15.2,-4.4 l 0,3.4 7.4,0 0,-71.8 z m -21.7,66.1 c -5.9,0 -11.2,-2.7 -11.2,-18.9 0,-13 3.1,-19.9 13.6,-19.9 4.1,0 10.3,0.9 11.9,1.2 l 0,33.9 c 0,0 -7.2,3.7 -14.3,3.7 z"
           style="font-style:normal;font-variant:normal;font-weight:normal;font-stretch:normal;font-size:100px;line-height:100%;font-family:Titillium;-inkscape-font-specification:'Titillium, Normal';text-align:center;writing-mode:lr-tb;text-anchor:middle;fill:#666666"
           id="path9624"
           inkscape:connector-curvature="0" />
        <path
           d="m 627.05234,2849.3477 c -14.9,0 -20.8,7 -20.8,25.1 0,19.6 4.7,26.9 20.6,26.9 4.6,0 13.9,-1.4 13.9,-1.4 l -0.3,-6.2 c 0,0 -8,0.9 -11.8,0.9 -12.4,0 -14.7,-5.4 -14.7,-20.2 0,-13.4 3.1,-18.4 14.6,-18.4 3.8,0 11.8,0.9 11.8,0.9 l 0.3,-6.1 c 0,0 -9,-1.5 -13.6,-1.5 z"
           style="font-style:normal;font-variant:normal;font-weight:normal;font-stretch:normal;font-size:100px;line-height:100%;font-family:Titillium;-inkscape-font-specification:'Titillium, Normal';text-align:center;writing-mode:lr-tb;text-anchor:middle;fill:#666666"
           id="path9626"
           inkscape:connector-curvature="0" />
        <path
           d="m 670.52109,2849.3477 c -15.8,0 -21.4,8.2 -21.4,25.4 0,18.2 4.6,26.6 21.4,26.6 16.9,0 21.4,-8.4 21.4,-26.6 0,-17.2 -5.5,-25.4 -21.4,-25.4 z m 0,45.5 c -11.8,0 -13.7,-5.9 -13.7,-20.1 0,-13.9 3.1,-18.9 13.7,-18.9 10.7,0 13.7,5 13.7,18.9 0,14.2 -1.8,20.1 -13.7,20.1 z"
           style="font-style:normal;font-variant:normal;font-weight:normal;font-stretch:normal;font-size:100px;line-height:100%;font-family:Titillium;-inkscape-font-specification:'Titillium, Normal';text-align:center;writing-mode:lr-tb;text-anchor:middle;fill:#666666"
           id="path9628"
           inkscape:connector-curvature="0" />
        <path
           d="m 711.75078,2900.3477 0,-40.6 c 0,0 6.9,-3.7 14.1,-3.7 9.3,0 10.8,4.9 10.8,18.1 l 0,26.2 7.4,0 0,-26.4 c 0,-17.8 -3.1,-24.6 -16.9,-24.6 -7.4,0 -15.5,4.5 -15.5,4.5 l 0,-3.5 -7.4,0 0,50 7.5,0 z"
           style="font-style:normal;font-variant:normal;font-weight:normal;font-stretch:normal;font-size:100px;line-height:100%;font-family:Titillium;-inkscape-font-specification:'Titillium, Normal';text-align:center;writing-mode:lr-tb;text-anchor:middle;fill:#666666"
           id="path9630"
           inkscape:connector-curvature="0" />
        <path
           d="m 783.47109,2856.8477 0,-6.5 -15.9,0 0,-15.3 -7.4,0 0,15.3 -7.1,0 0,6.5 7.1,0 0,26.3 c 0,14.4 3.5,18.3 13.8,18.3 3.5,0 10.2,-1.1 10.2,-1.1 l -0.5,-6.2 c 0,0 -6.1,0.6 -8.9,0.6 -6.5,0 -7.2,-3.1 -7.2,-14 l 0,-23.9 15.9,0 z"
           style="font-style:normal;font-variant:normal;font-weight:normal;font-stretch:normal;font-size:100px;line-height:100%;font-family:Titillium;-inkscape-font-specification:'Titillium, Normal';text-align:center;writing-mode:lr-tb;text-anchor:middle;fill:#666666"
           id="path9632"
           inkscape:connector-curvature="0" />
        <path
           d="m 792.72734,2900.3477 7.5,0 0,-36.7 c 0,0 8.8,-4.9 18.2,-6.8 l 0,-7.6 c -9.6,1.9 -18.3,7.9 -18.3,7.9 l 0,-6.8 -7.4,0 0,50 z"
           style="font-style:normal;font-variant:normal;font-weight:normal;font-stretch:normal;font-size:100px;line-height:100%;font-family:Titillium;-inkscape-font-specification:'Titillium, Normal';text-align:center;writing-mode:lr-tb;text-anchor:middle;fill:#666666"
           id="path9634"
           inkscape:connector-curvature="0" />
        <path
           d="m 827.29766,2900.3477 7.5,0 0,-50 -7.5,0 0,50 z m 0,-61.3 7.5,0 0,-8.7 -7.5,0 0,8.7 z"
           style="font-style:normal;font-variant:normal;font-weight:normal;font-stretch:normal;font-size:100px;line-height:100%;font-family:Titillium;-inkscape-font-specification:'Titillium, Normal';text-align:center;writing-mode:lr-tb;text-anchor:middle;fill:#666666"
           id="path9636"
           inkscape:connector-curvature="0" />
        <path
           d="m 871.27266,2849.3477 c -7.1,0 -14.7,3.5 -14.7,3.5 l 0,-24.3 -7.4,0 0,71.7 c 0,0 10.7,1.1 16.7,1.1 18.2,0 23.6,-6.9 23.6,-26.8 0,-18 -4.6,-25.2 -18.2,-25.2 z m -5.5,45.3 c -2.7,0 -9.2,-0.5 -9.2,-0.5 l 0,-35.2 c 0,0 7,-2.9 13.9,-2.9 8.8,0 11.4,5.6 11.4,18.5 0,14 -2.4,20.1 -16.1,20.1 z"
           style="font-style:normal;font-variant:normal;font-weight:normal;font-stretch:normal;font-size:100px;line-height:100%;font-family:Titillium;-inkscape-font-specification:'Titillium, Normal';text-align:center;writing-mode:lr-tb;text-anchor:middle;fill:#666666"
           id="path9638"
           inkscape:connector-curvature="0" />
        <path
           d="m 933.10703,2850.3477 0,40.6 c 0,0 -6.3,3.7 -13.7,3.7 -9.3,0 -10.5,-4.5 -10.5,-18.3 l 0,-26 -7.5,0 0,26.1 c 0,18.4 2.9,24.9 16.9,24.9 7.3,0 14.8,-4.5 14.8,-4.5 l 0,3.5 7.5,0 0,-50 -7.5,0 z"
           style="font-style:normal;font-variant:normal;font-weight:normal;font-stretch:normal;font-size:100px;line-height:100%;font-family:Titillium;-inkscape-font-specification:'Titillium, Normal';text-align:center;writing-mode:lr-tb;text-anchor:middle;fill:#666666"
           id="path9640"
           inkscape:connector-curvature="0" />
        <path
           d="m 980.93203,2856.8477 0,-6.5 -15.9,0 0,-15.3 -7.4,0 0,15.3 -7.1,0 0,6.5 7.1,0 0,26.3 c 0,14.4 3.5,18.3 13.8,18.3 3.5,0 10.2,-1.1 10.2,-1.1 l -0.5,-6.2 c 0,0 -6.1,0.6 -8.9,0.6 -6.5,0 -7.2,-3.1 -7.2,-14 l 0,-23.9 15.9,0 z"
           style="font-style:normal;font-variant:normal;font-weight:normal;font-stretch:normal;font-size:100px;line-height:100%;font-family:Titillium;-inkscape-font-specification:'Titillium, Normal';text-align:center;writing-mode:lr-tb;text-anchor:middle;fill:#666666"
           id="path9642"
           inkscape:connector-curvature="0" />
        <path
           d="m 1009.3883,2849.3477 c -15.80002,0 -21.40002,8.2 -21.40002,25.4 0,18.2 4.6,26.6 21.40002,26.6 16.9,0 21.4,-8.4 21.4,-26.6 0,-17.2 -5.5,-25.4 -21.4,-25.4 z m 0,45.5 c -11.80002,0 -13.70002,-5.9 -13.70002,-20.1 0,-13.9 3.1,-18.9 13.70002,-18.9 10.7,0 13.7,5 13.7,18.9 0,14.2 -1.8,20.1 -13.7,20.1 z"
           style="font-style:normal;font-variant:normal;font-weight:normal;font-stretch:normal;font-size:100px;line-height:100%;font-family:Titillium;-inkscape-font-specification:'Titillium, Normal';text-align:center;writing-mode:lr-tb;text-anchor:middle;fill:#666666"
           id="path9644"
           inkscape:connector-curvature="0" />
        <path
           d="m 1043.118,2900.3477 7.5,0 0,-36.7 c 0,0 8.8,-4.9 18.2,-6.8 l 0,-7.6 c -9.6,1.9 -18.3,7.9 -18.3,7.9 l 0,-6.8 -7.4,0 0,50 z"
           style="font-style:normal;font-variant:normal;font-weight:normal;font-stretch:normal;font-size:100px;line-height:100%;font-family:Titillium;-inkscape-font-specification:'Titillium, Normal';text-align:center;writing-mode:lr-tb;text-anchor:middle;fill:#666666"
           id="path9646"
           inkscape:connector-curvature="0" />
        <path
           d="m 1111.0883,2851.2477 c 0,0 -10.6,-1.9 -18.1,-1.9 -9.1,0 -18,3.6 -18,14.6 0,10 5.4,12.1 16.7,13.9 10.9,1.7 13.5,3 13.5,8.2 0,6.8 -4.4,8.6 -12.6,8.6 -5.1,0 -16.5,-1.7 -16.5,-1.7 l -0.4,6.5 c 0,0 11.2,1.9 17.6,1.9 12,0 19.4,-3.9 19.4,-15.6 0,-9.7 -4.7,-12.2 -17.2,-14.3 -10.6,-1.8 -13,-3.1 -13,-7.8 0,-5.9 4.7,-7.6 10.9,-7.6 6.4,0 17.5,1.6 17.5,1.6 l 0.2,-6.4 z"
           style="font-style:normal;font-variant:normal;font-weight:normal;font-stretch:normal;font-size:100px;line-height:100%;font-family:Titillium;-inkscape-font-specification:'Titillium, Normal';text-align:center;writing-mode:lr-tb;text-anchor:middle;fill:#666666"
           id="path9648"
           inkscape:connector-curvature="0" />
        <path
           d="m 1155.843,2856.8477 14.5,0 0,-6.5 -14.5,0 0,-4.4 c 0,-9.3 1.8,-11.7 7.4,-11.7 3,0 8.6,0.2 8.6,0.2 l 0.1,-6.2 c 0,0 -6.7,-0.7 -10.1,-0.7 -9.8,0 -13.5,3.9 -13.5,18.3 l 0,4.5 -6.3,0 0,6.5 6.3,0 0,43.5 7.5,0 0,-43.5 z"
           style="font-style:normal;font-variant:normal;font-weight:normal;font-stretch:normal;font-size:100px;line-height:100%;font-family:Titillium;-inkscape-font-specification:'Titillium, Normal';text-align:center;writing-mode:lr-tb;text-anchor:middle;fill:#666666"
           id="path9650"
           inkscape:connector-curvature="0" />
        <path
           d="m 1197.4742,2849.3477 c -15.8,0 -21.4,8.2 -21.4,25.4 0,18.2 4.6,26.6 21.4,26.6 16.9,0 21.4,-8.4 21.4,-26.6 0,-17.2 -5.5,-25.4 -21.4,-25.4 z m 0,45.5 c -11.8,0 -13.7,-5.9 -13.7,-20.1 0,-13.9 3.1,-18.9 13.7,-18.9 10.7,0 13.7,5 13.7,18.9 0,14.2 -1.8,20.1 -13.7,20.1 z"
           style="font-style:normal;font-variant:normal;font-weight:normal;font-stretch:normal;font-size:100px;line-height:100%;font-family:Titillium;-inkscape-font-specification:'Titillium, Normal';text-align:center;writing-mode:lr-tb;text-anchor:middle;fill:#666666"
           id="path9652"
           inkscape:connector-curvature="0" />
        <path
           d="m 1231.2039,2900.3477 7.5,0 0,-36.7 c 0,0 8.8,-4.9 18.2,-6.8 l 0,-7.6 c -9.6,1.9 -18.3,7.9 -18.3,7.9 l 0,-6.8 -7.4,0 0,50 z"
           style="font-style:normal;font-variant:normal;font-weight:normal;font-stretch:normal;font-size:100px;line-height:100%;font-family:Titillium;-inkscape-font-specification:'Titillium, Normal';text-align:center;writing-mode:lr-tb;text-anchor:middle;fill:#666666"
           id="path9654"
           inkscape:connector-curvature="0" />
        <path
           d="m 1313.7445,2856.8477 0,-6.5 -15.9,0 0,-15.3 -7.4,0 0,15.3 -7.1,0 0,6.5 7.1,0 0,26.3 c 0,14.4 3.5,18.3 13.8,18.3 3.5,0 10.2,-1.1 10.2,-1.1 l -0.5,-6.2 c 0,0 -6.1,0.6 -8.9,0.6 -6.5,0 -7.2,-3.1 -7.2,-14 l 0,-23.9 15.9,0 z"
           style="font-style:normal;font-variant:normal;font-weight:normal;font-stretch:normal;font-size:100px;line-height:100%;font-family:Titillium;-inkscape-font-specification:'Titillium, Normal';text-align:center;writing-mode:lr-tb;text-anchor:middle;fill:#666666"
           id="path9656"
           inkscape:connector-curvature="0" />
        <path
           d="m 1330.5008,2900.3477 0,-41.3 c 0,0 7,-3 14.1,-3 9.2,0 10.7,4.9 10.7,18.1 l 0,26.2 7.5,0 0,-26.4 c 0,-17.8 -3.2,-24.6 -16.9,-24.6 -7.4,0 -15.4,3.8 -15.4,3.8 l 0,-24.6 -7.5,0 0,71.8 7.5,0 z"
           style="font-style:normal;font-variant:normal;font-weight:normal;font-stretch:normal;font-size:100px;line-height:100%;font-family:Titillium;-inkscape-font-specification:'Titillium, Normal';text-align:center;writing-mode:lr-tb;text-anchor:middle;fill:#666666"
           id="path9658"
           inkscape:connector-curvature="0" />
        <path
           d="m 1395.2117,2894.7477 c -9.8,0 -13.1,-5.6 -13.1,-16.3 l 33,0 0.4,-5.7 c 0,-16.4 -6.8,-23.4 -20.1,-23.4 -12.7,0 -20.9,7.3 -20.9,26.3 0,17 4.9,25.7 19.8,25.7 8.1,0 19.5,-1.6 19.5,-1.6 l -0.2,-5.9 c 0,0 -10.9,0.9 -18.4,0.9 z m -13.2,-22.3 c 0.1,-12.1 4.9,-16.8 13.4,-16.8 8.8,0 12.6,4.4 12.6,16.8 l -26,0 z"
           style="font-style:normal;font-variant:normal;font-weight:normal;font-stretch:normal;font-size:100px;line-height:100%;font-family:Titillium;-inkscape-font-specification:'Titillium, Normal';text-align:center;writing-mode:lr-tb;text-anchor:middle;fill:#666666"
           id="path9660"
           inkscape:connector-curvature="0" />
        <path
           d="m 1446.468,2837.9477 36.1,0 0,2.2 -36.1,51.4 0,8.9 45,0 0,-6.9 -36.2,0 0,-2 36.2,-51.4 0,-9 -45,0 0,6.8 z"
           style="font-style:normal;font-variant:normal;font-weight:normal;font-stretch:normal;font-size:100px;line-height:100%;font-family:Titillium;-inkscape-font-specification:'Titillium, Normal';text-align:center;writing-mode:lr-tb;text-anchor:middle;fill:#666666"
           id="path9662"
           inkscape:connector-curvature="0" />
        <path
           d="m 1503.0789,2900.3477 7.5,0 0,-50 -7.5,0 0,50 z m 0,-61.3 7.5,0 0,-8.7 -7.5,0 0,8.7 z"
           style="font-style:normal;font-variant:normal;font-weight:normal;font-stretch:normal;font-size:100px;line-height:100%;font-family:Titillium;-inkscape-font-specification:'Titillium, Normal';text-align:center;writing-mode:lr-tb;text-anchor:middle;fill:#666666"
           id="path9664"
           inkscape:connector-curvature="0" />
        <path
           d="m 1532.4539,2900.3477 0,-40.6 c 0,0 6.3,-3.7 13.4,-3.7 9.1,0 10.5,4.7 10.5,18.5 l 0,25.8 7.5,0 0,-26 c 0,-6 -0.4,-12.3 -1.3,-14.6 0,0 6.7,-3.7 14.1,-3.7 9,0 10.5,4.9 10.5,18.1 l 0,26.2 7.5,0 0,-26.4 c 0,-18.1 -3.3,-24.6 -16.9,-24.6 -8.9,0 -17.8,5.1 -17.8,5.1 -2.6,-3.6 -6.3,-5.1 -13,-5.1 -7.1,0 -14.6,4.5 -14.6,4.5 l 0,-3.5 -7.4,0 0,50 7.5,0 z"
           style="font-style:normal;font-variant:normal;font-weight:normal;font-stretch:normal;font-size:100px;line-height:100%;font-family:Titillium;-inkscape-font-specification:'Titillium, Normal';text-align:center;writing-mode:lr-tb;text-anchor:middle;fill:#666666"
           id="path9666"
           inkscape:connector-curvature="0" />
        <path
           d="m 1630.6477,2849.3477 c -7.1,0 -14.7,3.5 -14.7,3.5 l 0,-24.3 -7.4,0 0,71.7 c 0,0 10.7,1.1 16.7,1.1 18.2,0 23.6,-6.9 23.6,-26.8 0,-18 -4.6,-25.2 -18.2,-25.2 z m -5.5,45.3 c -2.7,0 -9.2,-0.5 -9.2,-0.5 l 0,-35.2 c 0,0 7,-2.9 13.9,-2.9 8.8,0 11.4,5.6 11.4,18.5 0,14 -2.4,20.1 -16.1,20.1 z"
           style="font-style:normal;font-variant:normal;font-weight:normal;font-stretch:normal;font-size:100px;line-height:100%;font-family:Titillium;-inkscape-font-specification:'Titillium, Normal';text-align:center;writing-mode:lr-tb;text-anchor:middle;fill:#666666"
           id="path9668"
           inkscape:connector-curvature="0" />
        <path
           d="m 1661.282,2900.3477 7.5,0 0,-36.7 c 0,0 8.8,-4.9 18.2,-6.8 l 0,-7.6 c -9.6,1.9 -18.3,7.9 -18.3,7.9 l 0,-6.8 -7.4,0 0,50 z"
           style="font-style:normal;font-variant:normal;font-weight:normal;font-stretch:normal;font-size:100px;line-height:100%;font-family:Titillium;-inkscape-font-specification:'Titillium, Normal';text-align:center;writing-mode:lr-tb;text-anchor:middle;fill:#666666"
           id="path9670"
           inkscape:connector-curvature="0" />
        <path
           d="m 1731.1523,2865.4477 c 0,-10.9 -4.8,-16.1 -16.1,-16.1 -8.6,0 -19.6,2.2 -19.6,2.2 l 0.3,5.7 c 0,0 11.9,-1.3 18.9,-1.3 6,0 9,2.5 9,9.5 l 0,4.3 -15.7,1.5 c -10.3,1 -15.3,5.2 -15.3,14.8 0,10.1 5,15.3 14.1,15.3 9,0 18,-4 18,-4 3,3 6.6,4 11.9,4 l 0.3,-5.9 c -3.2,-0.4 -5.6,-1.5 -5.8,-4.4 l 0,-25.6 z m -7.5,10 0,16.5 c 0,0 -8.3,3.1 -15.7,3.1 -5.1,0 -7.6,-3.4 -7.6,-9.2 0,-5.5 2.4,-8.4 8.5,-9 l 14.8,-1.4 z"
           style="font-style:normal;font-variant:normal;font-weight:normal;font-stretch:normal;font-size:100px;line-height:100%;font-family:Titillium;-inkscape-font-specification:'Titillium, Normal';text-align:center;writing-mode:lr-tb;text-anchor:middle;fill:#666666"
           id="path9672"
           inkscape:connector-curvature="0" />
        <path
           d="m 441.09766,3000.3477 42.1,0 0,-6.8 -34.4,0 0,-25 28.4,0 0,-6.7 -28.4,0 0,-23.9 34.4,0 0,-6.8 -42.1,0 0,69.2 z"
           style="font-style:normal;font-variant:normal;font-weight:normal;font-stretch:normal;font-size:100px;line-height:100%;font-family:Titillium;-inkscape-font-specification:'Titillium, Normal';text-align:center;writing-mode:lr-tb;text-anchor:middle;fill:#666666"
           id="path9674"
           inkscape:connector-curvature="0" />
        <path
           d="m 502.76641,3000.3477 0,-40.6 c 0,0 6.3,-3.7 13.4,-3.7 9.1,0 10.5,4.7 10.5,18.5 l 0,25.8 7.5,0 0,-26 c 0,-6 -0.4,-12.3 -1.3,-14.6 0,0 6.7,-3.7 14.1,-3.7 9,0 10.5,4.9 10.5,18.1 l 0,26.2 7.5,0 0,-26.4 c 0,-18.1 -3.3,-24.6 -16.9,-24.6 -8.9,0 -17.8,5.1 -17.8,5.1 -2.6,-3.6 -6.3,-5.1 -13,-5.1 -7.1,0 -14.6,4.5 -14.6,4.5 l 0,-3.5 -7.4,0 0,50 7.5,0 z"
           style="font-style:normal;font-variant:normal;font-weight:normal;font-stretch:normal;font-size:100px;line-height:100%;font-family:Titillium;-inkscape-font-specification:'Titillium, Normal';text-align:center;writing-mode:lr-tb;text-anchor:middle;fill:#666666"
           id="path9676"
           inkscape:connector-curvature="0" />
        <path
           d="m 614.16016,2965.4477 c 0,-10.9 -4.8,-16.1 -16.1,-16.1 -8.6,0 -19.6,2.2 -19.6,2.2 l 0.3,5.7 c 0,0 11.9,-1.3 18.9,-1.3 6,0 9,2.5 9,9.5 l 0,4.3 -15.7,1.5 c -10.3,1 -15.3,5.2 -15.3,14.8 0,10.1 5,15.3 14.1,15.3 9,0 18,-4 18,-4 3,3 6.6,4 11.9,4 l 0.3,-5.9 c -3.2,-0.4 -5.6,-1.5 -5.8,-4.4 l 0,-25.6 z m -7.5,10 0,16.5 c 0,0 -8.3,3.1 -15.7,3.1 -5.1,0 -7.6,-3.4 -7.6,-9.2 0,-5.5 2.4,-8.4 8.5,-9 l 14.8,-1.4 z"
           style="font-style:normal;font-variant:normal;font-weight:normal;font-stretch:normal;font-size:100px;line-height:100%;font-family:Titillium;-inkscape-font-specification:'Titillium, Normal';text-align:center;writing-mode:lr-tb;text-anchor:middle;fill:#666666"
           id="path9678"
           inkscape:connector-curvature="0" />
        <path
           d="m 628.86016,3000.3477 7.5,0 0,-50 -7.5,0 0,50 z m 0,-61.3 7.5,0 0,-8.7 -7.5,0 0,8.7 z"
           style="font-style:normal;font-variant:normal;font-weight:normal;font-stretch:normal;font-size:100px;line-height:100%;font-family:Titillium;-inkscape-font-specification:'Titillium, Normal';text-align:center;writing-mode:lr-tb;text-anchor:middle;fill:#666666"
           id="path9680"
           inkscape:connector-curvature="0" />
        <path
           d="m 651.33516,3000.3477 7.5,0 0,-71.8 -7.5,0 0,71.8 z"
           style="font-style:normal;font-variant:normal;font-weight:normal;font-stretch:normal;font-size:100px;line-height:100%;font-family:Titillium;-inkscape-font-specification:'Titillium, Normal';text-align:center;writing-mode:lr-tb;text-anchor:middle;fill:#666666"
           id="path9682"
           inkscape:connector-curvature="0" />
        <path
           d="m 720.05234,2930.2477 c -11.1,0 -17.4,5.9 -17.4,14.7 0,5.8 0.7,9.2 5.7,14.9 -10.5,3.4 -15.5,8.3 -15.5,20.2 0,13.2 5.9,21.3 24.6,21.3 9.5,0 16.9,-3.8 21.5,-11.4 l 12.1,11.3 4.5,-5 -12.9,-12.2 c 1.9,-4.7 3.9,-13.8 4.6,-20.8 l -7.3,-0.1 c -0.3,4.8 -1.7,13 -2.8,16.2 l -15.2,-15 c 10.8,-5 15.4,-9.4 15.4,-18.9 0,-9.3 -5.6,-15.2 -17.3,-15.2 z m -3.2,64.3 c -11.8,0 -16.4,-5.2 -16.4,-15 0,-8.5 3.5,-12.3 12.2,-15 l 21.1,21 c -3.2,6.2 -9.4,9 -16.9,9 z m -6.7,-48.4 c 0,-6.4 3.6,-9.4 9.9,-9.4 6.9,0 9.8,3.2 9.8,9.2 0,7.1 -3.5,10.1 -12.3,13.9 l -2.9,-2.8 c -3.5,-3.7 -4.5,-7.2 -4.5,-10.9 z"
           style="font-style:normal;font-variant:normal;font-weight:normal;font-stretch:normal;font-size:100px;line-height:100%;font-family:Titillium;-inkscape-font-specification:'Titillium, Normal';text-align:center;writing-mode:lr-tb;text-anchor:middle;fill:#666666"
           id="path9684"
           inkscape:connector-curvature="0" />
        <path
           d="m 829.47266,2992.6477 c -4.8,0.9 -12.2,1.8 -17.8,1.8 -15.8,0 -18.3,-9.2 -18.3,-28.5 0,-19.7 2.7,-28.9 18.1,-28.9 5.4,0 13.5,1 18,1.8 l 0.3,-6.5 c -4.4,-0.9 -12,-2.2 -19.1,-2.2 -20.8,0 -25.3,12.4 -25.3,35.8 0,22.8 4.6,35.4 25.3,35.4 6.6,0 14.2,-1.1 19.1,-2.1 l -0.3,-6.6 z"
           style="font-style:normal;font-variant:normal;font-weight:normal;font-stretch:normal;font-size:100px;line-height:100%;font-family:Titillium;-inkscape-font-specification:'Titillium, Normal';text-align:center;writing-mode:lr-tb;text-anchor:middle;fill:#666666"
           id="path9686"
           inkscape:connector-curvature="0" />
        <path
           d="m 859.38828,2949.3477 c -15.8,0 -21.4,8.2 -21.4,25.4 0,18.2 4.6,26.6 21.4,26.6 16.9,0 21.4,-8.4 21.4,-26.6 0,-17.2 -5.5,-25.4 -21.4,-25.4 z m 0,45.5 c -11.8,0 -13.7,-5.9 -13.7,-20.1 0,-13.9 3.1,-18.9 13.7,-18.9 10.7,0 13.7,5 13.7,18.9 0,14.2 -1.8,20.1 -13.7,20.1 z"
           style="font-style:normal;font-variant:normal;font-weight:normal;font-stretch:normal;font-size:100px;line-height:100%;font-family:Titillium;-inkscape-font-specification:'Titillium, Normal';text-align:center;writing-mode:lr-tb;text-anchor:middle;fill:#666666"
           id="path9688"
           inkscape:connector-curvature="0" />
        <path
           d="m 893.71797,3000.3477 7.5,0 0,-71.8 -7.5,0 0,71.8 z"
           style="font-style:normal;font-variant:normal;font-weight:normal;font-stretch:normal;font-size:100px;line-height:100%;font-family:Titillium;-inkscape-font-specification:'Titillium, Normal';text-align:center;writing-mode:lr-tb;text-anchor:middle;fill:#666666"
           id="path9690"
           inkscape:connector-curvature="0" />
        <path
           d="m 916.76484,3000.3477 7.5,0 0,-71.8 -7.5,0 0,71.8 z"
           style="font-style:normal;font-variant:normal;font-weight:normal;font-stretch:normal;font-size:100px;line-height:100%;font-family:Titillium;-inkscape-font-specification:'Titillium, Normal';text-align:center;writing-mode:lr-tb;text-anchor:middle;fill:#666666"
           id="path9692"
           inkscape:connector-curvature="0" />
        <path
           d="m 974.51172,2965.4477 c 0,-10.9 -4.8,-16.1 -16.1,-16.1 -8.6,0 -19.6,2.2 -19.6,2.2 l 0.3,5.7 c 0,0 11.9,-1.3 18.9,-1.3 6,0 9,2.5 9,9.5 l 0,4.3 -15.7,1.5 c -10.3,1 -15.3,5.2 -15.3,14.8 0,10.1 5,15.3 14.1,15.3 9,0 18,-4 18,-4 3,3 6.6,4 11.9,4 l 0.3,-5.9 c -3.2,-0.4 -5.6,-1.5 -5.8,-4.4 l 0,-25.6 z m -7.5,10 0,16.5 c 0,0 -8.3,3.1 -15.7,3.1 -5.1,0 -7.6,-3.4 -7.6,-9.2 0,-5.5 2.4,-8.4 8.5,-9 l 14.8,-1.4 z"
           style="font-style:normal;font-variant:normal;font-weight:normal;font-stretch:normal;font-size:100px;line-height:100%;font-family:Titillium;-inkscape-font-specification:'Titillium, Normal';text-align:center;writing-mode:lr-tb;text-anchor:middle;fill:#666666"
           id="path9694"
           inkscape:connector-curvature="0" />
        <path
           d="m 1011.3117,2949.3477 c -7.1,0 -14.69998,3.5 -14.69998,3.5 l 0,-24.3 -7.4,0 0,71.7 c 0,0 10.7,1.1 16.69998,1.1 18.2,0 23.6,-6.9 23.6,-26.8 0,-18 -4.6,-25.2 -18.2,-25.2 z m -5.5,45.3 c -2.7,0 -9.19998,-0.5 -9.19998,-0.5 l 0,-35.2 c 0,0 6.99998,-2.9 13.89998,-2.9 8.8,0 11.4,5.6 11.4,18.5 0,14 -2.4,20.1 -16.1,20.1 z"
           style="font-style:normal;font-variant:normal;font-weight:normal;font-stretch:normal;font-size:100px;line-height:100%;font-family:Titillium;-inkscape-font-specification:'Titillium, Normal';text-align:center;writing-mode:lr-tb;text-anchor:middle;fill:#666666"
           id="path9696"
           inkscape:connector-curvature="0" />
        <path
           d="m 1061.1461,2949.3477 c -15.8,0 -21.4,8.2 -21.4,25.4 0,18.2 4.6,26.6 21.4,26.6 16.9,0 21.4,-8.4 21.4,-26.6 0,-17.2 -5.5,-25.4 -21.4,-25.4 z m 0,45.5 c -11.8,0 -13.7,-5.9 -13.7,-20.1 0,-13.9 3.1,-18.9 13.7,-18.9 10.7,0 13.7,5 13.7,18.9 0,14.2 -1.8,20.1 -13.7,20.1 z"
           style="font-style:normal;font-variant:normal;font-weight:normal;font-stretch:normal;font-size:100px;line-height:100%;font-family:Titillium;-inkscape-font-specification:'Titillium, Normal';text-align:center;writing-mode:lr-tb;text-anchor:middle;fill:#666666"
           id="path9698"
           inkscape:connector-curvature="0" />
        <path
           d="m 1094.8758,3000.3477 7.5,0 0,-36.7 c 0,0 8.8,-4.9 18.2,-6.8 l 0,-7.6 c -9.6,1.9 -18.3,7.9 -18.3,7.9 l 0,-6.8 -7.4,0 0,50 z"
           style="font-style:normal;font-variant:normal;font-weight:normal;font-stretch:normal;font-size:100px;line-height:100%;font-family:Titillium;-inkscape-font-specification:'Titillium, Normal';text-align:center;writing-mode:lr-tb;text-anchor:middle;fill:#666666"
           id="path9700"
           inkscape:connector-curvature="0" />
        <path
           d="m 1164.7461,2965.4477 c 0,-10.9 -4.8,-16.1 -16.1,-16.1 -8.6,0 -19.6,2.2 -19.6,2.2 l 0.3,5.7 c 0,0 11.9,-1.3 18.9,-1.3 6,0 9,2.5 9,9.5 l 0,4.3 -15.7,1.5 c -10.3,1 -15.3,5.2 -15.3,14.8 0,10.1 5,15.3 14.1,15.3 9,0 18,-4 18,-4 3,3 6.6,4 11.9,4 l 0.3,-5.9 c -3.2,-0.4 -5.6,-1.5 -5.8,-4.4 l 0,-25.6 z m -7.5,10 0,16.5 c 0,0 -8.3,3.1 -15.7,3.1 -5.1,0 -7.6,-3.4 -7.6,-9.2 0,-5.5 2.4,-8.4 8.5,-9 l 14.8,-1.4 z"
           style="font-style:normal;font-variant:normal;font-weight:normal;font-stretch:normal;font-size:100px;line-height:100%;font-family:Titillium;-inkscape-font-specification:'Titillium, Normal';text-align:center;writing-mode:lr-tb;text-anchor:middle;fill:#666666"
           id="path9702"
           inkscape:connector-curvature="0" />
        <path
           d="m 1205.3461,2956.8477 0,-6.5 -15.9,0 0,-15.3 -7.4,0 0,15.3 -7.1,0 0,6.5 7.1,0 0,26.3 c 0,14.4 3.5,18.3 13.8,18.3 3.5,0 10.2,-1.1 10.2,-1.1 l -0.5,-6.2 c 0,0 -6.1,0.6 -8.9,0.6 -6.5,0 -7.2,-3.1 -7.2,-14 l 0,-23.9 15.9,0 z"
           style="font-style:normal;font-variant:normal;font-weight:normal;font-stretch:normal;font-size:100px;line-height:100%;font-family:Titillium;-inkscape-font-specification:'Titillium, Normal';text-align:center;writing-mode:lr-tb;text-anchor:middle;fill:#666666"
           id="path9704"
           inkscape:connector-curvature="0" />
        <path
           d="m 1214.6023,3000.3477 7.5,0 0,-50 -7.5,0 0,50 z m 0,-61.3 7.5,0 0,-8.7 -7.5,0 0,8.7 z"
           style="font-style:normal;font-variant:normal;font-weight:normal;font-stretch:normal;font-size:100px;line-height:100%;font-family:Titillium;-inkscape-font-specification:'Titillium, Normal';text-align:center;writing-mode:lr-tb;text-anchor:middle;fill:#666666"
           id="path9706"
           inkscape:connector-curvature="0" />
        <path
           d="m 1255.6773,2949.3477 c -15.8,0 -21.4,8.2 -21.4,25.4 0,18.2 4.6,26.6 21.4,26.6 16.9,0 21.4,-8.4 21.4,-26.6 0,-17.2 -5.5,-25.4 -21.4,-25.4 z m 0,45.5 c -11.8,0 -13.7,-5.9 -13.7,-20.1 0,-13.9 3.1,-18.9 13.7,-18.9 10.7,0 13.7,5 13.7,18.9 0,14.2 -1.8,20.1 -13.7,20.1 z"
           style="font-style:normal;font-variant:normal;font-weight:normal;font-stretch:normal;font-size:100px;line-height:100%;font-family:Titillium;-inkscape-font-specification:'Titillium, Normal';text-align:center;writing-mode:lr-tb;text-anchor:middle;fill:#666666"
           id="path9708"
           inkscape:connector-curvature="0" />
        <path
           d="m 1296.907,3000.3477 0,-40.6 c 0,0 6.9,-3.7 14.1,-3.7 9.3,0 10.8,4.9 10.8,18.1 l 0,26.2 7.4,0 0,-26.4 c 0,-17.8 -3.1,-24.6 -16.9,-24.6 -7.4,0 -15.5,4.5 -15.5,4.5 l 0,-3.5 -7.4,0 0,50 7.5,0 z"
           style="font-style:normal;font-variant:normal;font-weight:normal;font-stretch:normal;font-size:100px;line-height:100%;font-family:Titillium;-inkscape-font-specification:'Titillium, Normal';text-align:center;writing-mode:lr-tb;text-anchor:middle;fill:#666666"
           id="path9710"
           inkscape:connector-curvature="0" />
        <path
           d="m 1391.7883,2977.0477 c 15.1,0 22.1,-8.5 22.1,-23.6 0,-15 -7,-22.3 -22.1,-22.3 l -25.3,0 0,69.2 7.7,0 0,-23.3 17.6,0 z m -17.6,-6.8 0,-32.3 17.5,0 c 10.1,0 14.3,4.9 14.3,15.5 0,10.7 -4.2,16.8 -14.3,16.8 l -17.5,0 z"
           style="font-style:normal;font-variant:normal;font-weight:normal;font-stretch:normal;font-size:100px;line-height:100%;font-family:Titillium;-inkscape-font-specification:'Titillium, Normal';text-align:center;writing-mode:lr-tb;text-anchor:middle;fill:#666666"
           id="path9712"
           inkscape:connector-curvature="0" />
        <path
           d="m 1424.968,3000.3477 7.5,0 0,-71.8 -7.5,0 0,71.8 z"
           style="font-style:normal;font-variant:normal;font-weight:normal;font-stretch:normal;font-size:100px;line-height:100%;font-family:Titillium;-inkscape-font-specification:'Titillium, Normal';text-align:center;writing-mode:lr-tb;text-anchor:middle;fill:#666666"
           id="path9714"
           inkscape:connector-curvature="0" />
        <path
           d="m 1482.7148,2965.4477 c 0,-10.9 -4.8,-16.1 -16.1,-16.1 -8.6,0 -19.6,2.2 -19.6,2.2 l 0.3,5.7 c 0,0 11.9,-1.3 18.9,-1.3 6,0 9,2.5 9,9.5 l 0,4.3 -15.7,1.5 c -10.3,1 -15.3,5.2 -15.3,14.8 0,10.1 5,15.3 14.1,15.3 9,0 18,-4 18,-4 3,3 6.6,4 11.9,4 l 0.3,-5.9 c -3.2,-0.4 -5.6,-1.5 -5.8,-4.4 l 0,-25.6 z m -7.5,10 0,16.5 c 0,0 -8.3,3.1 -15.7,3.1 -5.1,0 -7.6,-3.4 -7.6,-9.2 0,-5.5 2.4,-8.4 8.5,-9 l 14.8,-1.4 z"
           style="font-style:normal;font-variant:normal;font-weight:normal;font-stretch:normal;font-size:100px;line-height:100%;font-family:Titillium;-inkscape-font-specification:'Titillium, Normal';text-align:center;writing-mode:lr-tb;text-anchor:middle;fill:#666666"
           id="path9716"
           inkscape:connector-curvature="0" />
        <path
           d="m 1523.3148,2956.8477 0,-6.5 -15.9,0 0,-15.3 -7.4,0 0,15.3 -7.1,0 0,6.5 7.1,0 0,26.3 c 0,14.4 3.5,18.3 13.8,18.3 3.5,0 10.2,-1.1 10.2,-1.1 l -0.5,-6.2 c 0,0 -6.1,0.6 -8.9,0.6 -6.5,0 -7.2,-3.1 -7.2,-14 l 0,-23.9 15.9,0 z"
           style="font-style:normal;font-variant:normal;font-weight:normal;font-stretch:normal;font-size:100px;line-height:100%;font-family:Titillium;-inkscape-font-specification:'Titillium, Normal';text-align:center;writing-mode:lr-tb;text-anchor:middle;fill:#666666"
           id="path9718"
           inkscape:connector-curvature="0" />
        <path
           d="m 1542.1711,2956.8477 14.5,0 0,-6.5 -14.5,0 0,-4.4 c 0,-9.3 1.8,-11.7 7.4,-11.7 3,0 8.6,0.2 8.6,0.2 l 0.1,-6.2 c 0,0 -6.7,-0.7 -10.1,-0.7 -9.8,0 -13.5,3.9 -13.5,18.3 l 0,4.5 -6.3,0 0,6.5 6.3,0 0,43.5 7.5,0 0,-43.5 z"
           style="font-style:normal;font-variant:normal;font-weight:normal;font-stretch:normal;font-size:100px;line-height:100%;font-family:Titillium;-inkscape-font-specification:'Titillium, Normal';text-align:center;writing-mode:lr-tb;text-anchor:middle;fill:#666666"
           id="path9720"
           inkscape:connector-curvature="0" />
        <path
           d="m 1583.8023,2949.3477 c -15.8,0 -21.4,8.2 -21.4,25.4 0,18.2 4.6,26.6 21.4,26.6 16.9,0 21.4,-8.4 21.4,-26.6 0,-17.2 -5.5,-25.4 -21.4,-25.4 z m 0,45.5 c -11.8,0 -13.7,-5.9 -13.7,-20.1 0,-13.9 3.1,-18.9 13.7,-18.9 10.7,0 13.7,5 13.7,18.9 0,14.2 -1.8,20.1 -13.7,20.1 z"
           style="font-style:normal;font-variant:normal;font-weight:normal;font-stretch:normal;font-size:100px;line-height:100%;font-family:Titillium;-inkscape-font-specification:'Titillium, Normal';text-align:center;writing-mode:lr-tb;text-anchor:middle;fill:#666666"
           id="path9722"
           inkscape:connector-curvature="0" />
        <path
           d="m 1617.532,3000.3477 7.5,0 0,-36.7 c 0,0 8.8,-4.9 18.2,-6.8 l 0,-7.6 c -9.6,1.9 -18.3,7.9 -18.3,7.9 l 0,-6.8 -7.4,0 0,50 z"
           style="font-style:normal;font-variant:normal;font-weight:normal;font-stretch:normal;font-size:100px;line-height:100%;font-family:Titillium;-inkscape-font-specification:'Titillium, Normal';text-align:center;writing-mode:lr-tb;text-anchor:middle;fill:#666666"
           id="path9724"
           inkscape:connector-curvature="0" />
        <path
           d="m 1659.6023,3000.3477 0,-40.6 c 0,0 6.3,-3.7 13.4,-3.7 9.1,0 10.5,4.7 10.5,18.5 l 0,25.8 7.5,0 0,-26 c 0,-6 -0.4,-12.3 -1.3,-14.6 0,0 6.7,-3.7 14.1,-3.7 9,0 10.5,4.9 10.5,18.1 l 0,26.2 7.5,0 0,-26.4 c 0,-18.1 -3.3,-24.6 -16.9,-24.6 -8.9,0 -17.8,5.1 -17.8,5.1 -2.6,-3.6 -6.3,-5.1 -13,-5.1 -7.1,0 -14.6,4.5 -14.6,4.5 l 0,-3.5 -7.4,0 0,50 7.5,0 z"
           style="font-style:normal;font-variant:normal;font-weight:normal;font-stretch:normal;font-size:100px;line-height:100%;font-family:Titillium;-inkscape-font-specification:'Titillium, Normal';text-align:center;writing-mode:lr-tb;text-anchor:middle;fill:#666666"
           id="path9726"
           inkscape:connector-curvature="0" />
        <path
           d="m 360.42422,3056.8477 0,-6.5 -15.9,0 0,-15.3 -7.4,0 0,15.3 -7.1,0 0,6.5 7.1,0 0,26.3 c 0,14.4 3.5,18.3 13.8,18.3 3.5,0 10.2,-1.1 10.2,-1.1 l -0.5,-6.2 c 0,0 -6.1,0.6 -8.9,0.6 -6.5,0 -7.2,-3.1 -7.2,-14 l 0,-23.9 15.9,0 z"
           style="font-style:normal;font-variant:normal;font-weight:normal;font-stretch:normal;font-size:100px;line-height:100%;font-family:Titillium;-inkscape-font-specification:'Titillium, Normal';text-align:center;writing-mode:lr-tb;text-anchor:middle;fill:#666666"
           id="path9728"
           inkscape:connector-curvature="0" />
        <path
           d="m 388.88047,3049.3477 c -15.8,0 -21.4,8.2 -21.4,25.4 0,18.2 4.6,26.6 21.4,26.6 16.9,0 21.4,-8.4 21.4,-26.6 0,-17.2 -5.5,-25.4 -21.4,-25.4 z m 0,45.5 c -11.8,0 -13.7,-5.9 -13.7,-20.1 0,-13.9 3.1,-18.9 13.7,-18.9 10.7,0 13.7,5 13.7,18.9 0,14.2 -1.8,20.1 -13.7,20.1 z"
           style="font-style:normal;font-variant:normal;font-weight:normal;font-stretch:normal;font-size:100px;line-height:100%;font-family:Titillium;-inkscape-font-specification:'Titillium, Normal';text-align:center;writing-mode:lr-tb;text-anchor:middle;fill:#666666"
           id="path9730"
           inkscape:connector-curvature="0" />
        <path
           d="m 452.18047,3100.3477 0,-41.3 c 0,0 7,-3 14.1,-3 9.2,0 10.7,4.9 10.7,18.1 l 0,26.2 7.5,0 0,-26.4 c 0,-17.8 -3.2,-24.6 -16.9,-24.6 -7.4,0 -15.4,3.8 -15.4,3.8 l 0,-24.6 -7.5,0 0,71.8 7.5,0 z"
           style="font-style:normal;font-variant:normal;font-weight:normal;font-stretch:normal;font-size:100px;line-height:100%;font-family:Titillium;-inkscape-font-specification:'Titillium, Normal';text-align:center;writing-mode:lr-tb;text-anchor:middle;fill:#666666"
           id="path9732"
           inkscape:connector-curvature="0" />
        <path
           d="m 516.89141,3094.7477 c -9.8,0 -13.1,-5.6 -13.1,-16.3 l 33,0 0.4,-5.7 c 0,-16.4 -6.8,-23.4 -20.1,-23.4 -12.7,0 -20.9,7.3 -20.9,26.3 0,17 4.9,25.7 19.8,25.7 8.1,0 19.5,-1.6 19.5,-1.6 l -0.2,-5.9 c 0,0 -10.9,0.9 -18.4,0.9 z m -13.2,-22.3 c 0.1,-12.1 4.9,-16.8 13.4,-16.8 8.8,0 12.6,4.4 12.6,16.8 l -26,0 z"
           style="font-style:normal;font-variant:normal;font-weight:normal;font-stretch:normal;font-size:100px;line-height:100%;font-family:Titillium;-inkscape-font-specification:'Titillium, Normal';text-align:center;writing-mode:lr-tb;text-anchor:middle;fill:#666666"
           id="path9734"
           inkscape:connector-curvature="0" />
        <path
           d="m 549.57734,3100.3477 7.5,0 0,-71.8 -7.5,0 0,71.8 z"
           style="font-style:normal;font-variant:normal;font-weight:normal;font-stretch:normal;font-size:100px;line-height:100%;font-family:Titillium;-inkscape-font-specification:'Titillium, Normal';text-align:center;writing-mode:lr-tb;text-anchor:middle;fill:#666666"
           id="path9736"
           inkscape:connector-curvature="0" />
        <path
           d="m 572.02422,3122.5477 7.5,0 0,-22.3 c 1.4,0.3 6.5,1.1 11.2,1.1 15.4,0 21.8,-7 21.8,-26.6 0,-17.7 -5.5,-25.4 -18.1,-25.4 -7.4,0 -15,4.6 -15,4.6 l 0,-3.6 -7.4,0 0,72.2 z m 21.3,-66.5 c 7.3,0 11.6,5 11.6,18.7 0,14.4 -3.6,20.1 -14.6,20.1 -4.3,0 -9.5,-0.9 -10.8,-1.1 l 0,-33.7 c 0,0 7,-4 13.8,-4 z"
           style="font-style:normal;font-variant:normal;font-weight:normal;font-stretch:normal;font-size:100px;line-height:100%;font-family:Titillium;-inkscape-font-specification:'Titillium, Normal';text-align:center;writing-mode:lr-tb;text-anchor:middle;fill:#666666"
           id="path9738"
           inkscape:connector-curvature="0" />
        <path
           d="m 665.32891,3094.7477 c -9.8,0 -13.1,-5.6 -13.1,-16.3 l 33,0 0.4,-5.7 c 0,-16.4 -6.8,-23.4 -20.1,-23.4 -12.7,0 -20.9,7.3 -20.9,26.3 0,17 4.9,25.7 19.8,25.7 8.1,0 19.5,-1.6 19.5,-1.6 l -0.2,-5.9 c 0,0 -10.9,0.9 -18.4,0.9 z m -13.2,-22.3 c 0.1,-12.1 4.9,-16.8 13.4,-16.8 8.8,0 12.6,4.4 12.6,16.8 l -26,0 z"
           style="font-style:normal;font-variant:normal;font-weight:normal;font-stretch:normal;font-size:100px;line-height:100%;font-family:Titillium;-inkscape-font-specification:'Titillium, Normal';text-align:center;writing-mode:lr-tb;text-anchor:middle;fill:#666666"
           id="path9740"
           inkscape:connector-curvature="0" />
        <path
           d="m 704.91484,3100.3477 0,-40.6 c 0,0 6.9,-3.7 14.1,-3.7 9.3,0 10.8,4.9 10.8,18.1 l 0,26.2 7.4,0 0,-26.4 c 0,-17.8 -3.1,-24.6 -16.9,-24.6 -7.4,0 -15.5,4.5 -15.5,4.5 l 0,-3.5 -7.4,0 0,50 7.5,0 z"
           style="font-style:normal;font-variant:normal;font-weight:normal;font-stretch:normal;font-size:100px;line-height:100%;font-family:Titillium;-inkscape-font-specification:'Titillium, Normal';text-align:center;writing-mode:lr-tb;text-anchor:middle;fill:#666666"
           id="path9742"
           inkscape:connector-curvature="0" />
        <path
           d="m 784.52578,3051.2477 c 0,0 -10.6,-1.9 -18.1,-1.9 -9.1,0 -18,3.6 -18,14.6 0,10 5.4,12.1 16.7,13.9 10.9,1.7 13.5,3 13.5,8.2 0,6.8 -4.4,8.6 -12.6,8.6 -5.1,0 -16.5,-1.7 -16.5,-1.7 l -0.4,6.5 c 0,0 11.2,1.9 17.6,1.9 12,0 19.4,-3.9 19.4,-15.6 0,-9.7 -4.7,-12.2 -17.2,-14.3 -10.6,-1.8 -13,-3.1 -13,-7.8 0,-5.9 4.7,-7.6 10.9,-7.6 6.4,0 17.5,1.6 17.5,1.6 l 0.2,-6.4 z"
           style="font-style:normal;font-variant:normal;font-weight:normal;font-stretch:normal;font-size:100px;line-height:100%;font-family:Titillium;-inkscape-font-specification:'Titillium, Normal';text-align:center;writing-mode:lr-tb;text-anchor:middle;fill:#666666"
           id="path9744"
           inkscape:connector-curvature="0" />
        <path
           d="m 828.81016,3050.3477 0,40.6 c 0,0 -6.3,3.7 -13.7,3.7 -9.3,0 -10.5,-4.5 -10.5,-18.3 l 0,-26 -7.5,0 0,26.1 c 0,18.4 2.9,24.9 16.9,24.9 7.3,0 14.8,-4.5 14.8,-4.5 l 0,3.5 7.5,0 0,-50 -7.5,0 z"
           style="font-style:normal;font-variant:normal;font-weight:normal;font-stretch:normal;font-size:100px;line-height:100%;font-family:Titillium;-inkscape-font-specification:'Titillium, Normal';text-align:center;writing-mode:lr-tb;text-anchor:middle;fill:#666666"
           id="path9746"
           inkscape:connector-curvature="0" />
        <path
           d="m 850.73516,3100.3477 7.5,0 0,-36.7 c 0,0 8.8,-4.9 18.2,-6.8 l 0,-7.6 c -9.6,1.9 -18.3,7.9 -18.3,7.9 l 0,-6.8 -7.4,0 0,50 z"
           style="font-style:normal;font-variant:normal;font-weight:normal;font-stretch:normal;font-size:100px;line-height:100%;font-family:Titillium;-inkscape-font-specification:'Titillium, Normal';text-align:center;writing-mode:lr-tb;text-anchor:middle;fill:#666666"
           id="path9748"
           inkscape:connector-curvature="0" />
        <path
           d="m 902.82891,3094.7477 c -9.8,0 -13.1,-5.6 -13.1,-16.3 l 33,0 0.4,-5.7 c 0,-16.4 -6.8,-23.4 -20.1,-23.4 -12.7,0 -20.9,7.3 -20.9,26.3 0,17 4.9,25.7 19.8,25.7 8.1,0 19.5,-1.6 19.5,-1.6 l -0.2,-5.9 c 0,0 -10.9,0.9 -18.4,0.9 z m -13.2,-22.3 c 0.1,-12.1 4.9,-16.8 13.4,-16.8 8.8,0 12.6,4.4 12.6,16.8 l -26,0 z"
           style="font-style:normal;font-variant:normal;font-weight:normal;font-stretch:normal;font-size:100px;line-height:100%;font-family:Titillium;-inkscape-font-specification:'Titillium, Normal';text-align:center;writing-mode:lr-tb;text-anchor:middle;fill:#666666"
           id="path9750"
           inkscape:connector-curvature="0" />
        <path
           d="m 956.98516,3100.3477 7.5,0 0,-50 -7.5,0 0,50 z m 0,-61.3 7.5,0 0,-8.7 -7.5,0 0,8.7 z"
           style="font-style:normal;font-variant:normal;font-weight:normal;font-stretch:normal;font-size:100px;line-height:100%;font-family:Titillium;-inkscape-font-specification:'Titillium, Normal';text-align:center;writing-mode:lr-tb;text-anchor:middle;fill:#666666"
           id="path9752"
           inkscape:connector-curvature="0" />
        <path
           d="m 1004.7602,3056.8477 0,-6.5 -15.90004,0 0,-15.3 -7.4,0 0,15.3 -7.1,0 0,6.5 7.1,0 0,26.3 c 0,14.4 3.5,18.3 13.8,18.3 3.5,0 10.20004,-1.1 10.20004,-1.1 l -0.5,-6.2 c 0,0 -6.10004,0.6 -8.90004,0.6 -6.5,0 -7.2,-3.1 -7.2,-14 l 0,-23.9 15.90004,0 z"
           style="font-style:normal;font-variant:normal;font-weight:normal;font-stretch:normal;font-size:100px;line-height:100%;font-family:Titillium;-inkscape-font-specification:'Titillium, Normal';text-align:center;writing-mode:lr-tb;text-anchor:middle;fill:#666666"
           id="path9754"
           inkscape:connector-curvature="0" />
        <path
           d="m 1047.4164,3051.2477 c 0,0 -10.6,-1.9 -18.1,-1.9 -9.1,0 -18,3.6 -18,14.6 0,10 5.4,12.1 16.7,13.9 10.9,1.7 13.5,3 13.5,8.2 0,6.8 -4.4,8.6 -12.6,8.6 -5.1,0 -16.5,-1.7 -16.5,-1.7 l -0.4,6.5 c 0,0 11.2,1.9 17.6,1.9 12,0 19.4,-3.9 19.4,-15.6 0,-9.7 -4.7,-12.2 -17.2,-14.3 -10.6,-1.8 -13,-3.1 -13,-7.8 0,-5.9 4.7,-7.6 10.9,-7.6 6.4,0 17.5,1.6 17.5,1.6 l 0.2,-6.4 z"
           style="font-style:normal;font-variant:normal;font-weight:normal;font-stretch:normal;font-size:100px;line-height:100%;font-family:Titillium;-inkscape-font-specification:'Titillium, Normal';text-align:center;writing-mode:lr-tb;text-anchor:middle;fill:#666666"
           id="path9756"
           inkscape:connector-curvature="0" />
        <path
           d="m 1083.1711,3100.3477 7.5,0 0,-71.8 -7.5,0 0,71.8 z"
           style="font-style:normal;font-variant:normal;font-weight:normal;font-stretch:normal;font-size:100px;line-height:100%;font-family:Titillium;-inkscape-font-specification:'Titillium, Normal';text-align:center;writing-mode:lr-tb;text-anchor:middle;fill:#666666"
           id="path9758"
           inkscape:connector-curvature="0" />
        <path
           d="m 1124.818,3049.3477 c -15.8,0 -21.4,8.2 -21.4,25.4 0,18.2 4.6,26.6 21.4,26.6 16.9,0 21.4,-8.4 21.4,-26.6 0,-17.2 -5.5,-25.4 -21.4,-25.4 z m 0,45.5 c -11.8,0 -13.7,-5.9 -13.7,-20.1 0,-13.9 3.1,-18.9 13.7,-18.9 10.7,0 13.7,5 13.7,18.9 0,14.2 -1.8,20.1 -13.7,20.1 z"
           style="font-style:normal;font-variant:normal;font-weight:normal;font-stretch:normal;font-size:100px;line-height:100%;font-family:Titillium;-inkscape-font-specification:'Titillium, Normal';text-align:center;writing-mode:lr-tb;text-anchor:middle;fill:#666666"
           id="path9760"
           inkscape:connector-curvature="0" />
        <path
           d="m 1166.0477,3100.3477 0,-40.6 c 0,0 6.9,-3.7 14.1,-3.7 9.3,0 10.8,4.9 10.8,18.1 l 0,26.2 7.4,0 0,-26.4 c 0,-17.8 -3.1,-24.6 -16.9,-24.6 -7.4,0 -15.5,4.5 -15.5,4.5 l 0,-3.5 -7.4,0 0,50 7.5,0 z"
           style="font-style:normal;font-variant:normal;font-weight:normal;font-stretch:normal;font-size:100px;line-height:100%;font-family:Titillium;-inkscape-font-specification:'Titillium, Normal';text-align:center;writing-mode:lr-tb;text-anchor:middle;fill:#666666"
           id="path9762"
           inkscape:connector-curvature="0" />
        <path
           d="m 1231.5586,3123.8477 c 14.1,0 22.2,-4.6 22.2,-15.9 0,-11.9 -5.1,-14.7 -19.3,-14.7 -11.3,0 -12.1,-0.6 -12.1,-4.6 0,-1.3 1.8,-5.7 1.8,-5.7 1.1,0.2 3.9,0.4 4.9,0.4 12.8,0 19.3,-3.9 19.3,-16.9 0,-5.3 -1.4,-8.1 -3.3,-10 l 9.5,0.2 0,-6.4 -14.8,0.4 c 0,0 -5.4,-1.3 -10.4,-1.3 -11.1,0 -18.7,4.8 -18.7,17.1 0,9.2 3.7,13.2 7.9,15.1 0,0 -3.4,6 -3.4,7.9 0,3.1 1,5.7 2.8,6.9 -5.2,3.9 -7.9,6.6 -7.9,12.4 0,11.6 5.7,15.1 21.5,15.1 z m 2.3,-24 c 9.1,0 12.3,0.8 12.3,8.4 0,6.6 -4.5,9.3 -14.5,9.3 -11.3,0 -14.2,-2.5 -14.2,-9.4 0,-3.9 1.4,-5.7 5.6,-8.8 0,0 7.3,0.5 10.8,0.5 z m -4.5,-22.5 c -7.8,0 -11.2,-3 -11.2,-10.9 0,-7.9 3.4,-11 11.2,-11 8.4,0 11.5,3.1 11.5,11 0,7.9 -3.1,10.9 -11.5,10.9 z"
           style="font-style:normal;font-variant:normal;font-weight:normal;font-stretch:normal;font-size:100px;line-height:100%;font-family:Titillium;-inkscape-font-specification:'Titillium, Normal';text-align:center;writing-mode:lr-tb;text-anchor:middle;fill:#666666"
           id="path9764"
           inkscape:connector-curvature="0" />
        <path
           d="m 1311.7914,3056.8477 0,-6.5 -15.9,0 0,-15.3 -7.4,0 0,15.3 -7.1,0 0,6.5 7.1,0 0,26.3 c 0,14.4 3.5,18.3 13.8,18.3 3.5,0 10.2,-1.1 10.2,-1.1 l -0.5,-6.2 c 0,0 -6.1,0.6 -8.9,0.6 -6.5,0 -7.2,-3.1 -7.2,-14 l 0,-23.9 15.9,0 z"
           style="font-style:normal;font-variant:normal;font-weight:normal;font-stretch:normal;font-size:100px;line-height:100%;font-family:Titillium;-inkscape-font-specification:'Titillium, Normal';text-align:center;writing-mode:lr-tb;text-anchor:middle;fill:#666666"
           id="path9766"
           inkscape:connector-curvature="0" />
        <path
           d="m 1339.5477,3094.7477 c -9.8,0 -13.1,-5.6 -13.1,-16.3 l 33,0 0.4,-5.7 c 0,-16.4 -6.8,-23.4 -20.1,-23.4 -12.7,0 -20.9,7.3 -20.9,26.3 0,17 4.9,25.7 19.8,25.7 8.1,0 19.5,-1.6 19.5,-1.6 l -0.2,-5.9 c 0,0 -10.9,0.9 -18.4,0.9 z m -13.2,-22.3 c 0.1,-12.1 4.9,-16.8 13.4,-16.8 8.8,0 12.6,4.4 12.6,16.8 l -26,0 z"
           style="font-style:normal;font-variant:normal;font-weight:normal;font-stretch:normal;font-size:100px;line-height:100%;font-family:Titillium;-inkscape-font-specification:'Titillium, Normal';text-align:center;writing-mode:lr-tb;text-anchor:middle;fill:#666666"
           id="path9768"
           inkscape:connector-curvature="0" />
        <path
           d="m 1371.6336,3100.3477 7.5,0 0,-36.7 c 0,0 8.8,-4.9 18.2,-6.8 l 0,-7.6 c -9.6,1.9 -18.3,7.9 -18.3,7.9 l 0,-6.8 -7.4,0 0,50 z"
           style="font-style:normal;font-variant:normal;font-weight:normal;font-stretch:normal;font-size:100px;line-height:100%;font-family:Titillium;-inkscape-font-specification:'Titillium, Normal';text-align:center;writing-mode:lr-tb;text-anchor:middle;fill:#666666"
           id="path9770"
           inkscape:connector-curvature="0" />
        <path
           d="m 1413.7039,3100.3477 0,-40.6 c 0,0 6.3,-3.7 13.4,-3.7 9.1,0 10.5,4.7 10.5,18.5 l 0,25.8 7.5,0 0,-26 c 0,-6 -0.4,-12.3 -1.3,-14.6 0,0 6.7,-3.7 14.1,-3.7 9,0 10.5,4.9 10.5,18.1 l 0,26.2 7.5,0 0,-26.4 c 0,-18.1 -3.3,-24.6 -16.9,-24.6 -8.9,0 -17.8,5.1 -17.8,5.1 -2.6,-3.6 -6.3,-5.1 -13,-5.1 -7.1,0 -14.6,4.5 -14.6,4.5 l 0,-3.5 -7.4,0 0,50 7.5,0 z"
           style="font-style:normal;font-variant:normal;font-weight:normal;font-stretch:normal;font-size:100px;line-height:100%;font-family:Titillium;-inkscape-font-specification:'Titillium, Normal';text-align:center;writing-mode:lr-tb;text-anchor:middle;fill:#666666"
           id="path9772"
           inkscape:connector-curvature="0" />
        <path
           d="m 1545.268,3051.2477 c 0,0 -10.6,-1.9 -18.1,-1.9 -9.1,0 -18,3.6 -18,14.6 0,10 5.4,12.1 16.7,13.9 10.9,1.7 13.5,3 13.5,8.2 0,6.8 -4.4,8.6 -12.6,8.6 -5.1,0 -16.5,-1.7 -16.5,-1.7 l -0.4,6.5 c 0,0 11.2,1.9 17.6,1.9 12,0 19.4,-3.9 19.4,-15.6 0,-9.7 -4.7,-12.2 -17.2,-14.3 -10.6,-1.8 -13,-3.1 -13,-7.8 0,-5.9 4.7,-7.6 10.9,-7.6 6.4,0 17.5,1.6 17.5,1.6 l 0.2,-6.4 z"
           style="font-style:normal;font-variant:normal;font-weight:normal;font-stretch:normal;font-size:100px;line-height:100%;font-family:Titillium;-inkscape-font-specification:'Titillium, Normal';text-align:center;writing-mode:lr-tb;text-anchor:middle;fill:#666666"
           id="path9774"
           inkscape:connector-curvature="0" />
        <path
           d="m 1589.5523,3050.3477 0,40.6 c 0,0 -6.3,3.7 -13.7,3.7 -9.3,0 -10.5,-4.5 -10.5,-18.3 l 0,-26 -7.5,0 0,26.1 c 0,18.4 2.9,24.9 16.9,24.9 7.3,0 14.8,-4.5 14.8,-4.5 l 0,3.5 7.5,0 0,-50 -7.5,0 z"
           style="font-style:normal;font-variant:normal;font-weight:normal;font-stretch:normal;font-size:100px;line-height:100%;font-family:Titillium;-inkscape-font-specification:'Titillium, Normal';text-align:center;writing-mode:lr-tb;text-anchor:middle;fill:#666666"
           id="path9776"
           inkscape:connector-curvature="0" />
        <path
           d="m 1630.1773,3049.3477 c -14.9,0 -20.8,7 -20.8,25.1 0,19.6 4.7,26.9 20.6,26.9 4.6,0 13.9,-1.4 13.9,-1.4 l -0.3,-6.2 c 0,0 -8,0.9 -11.8,0.9 -12.4,0 -14.7,-5.4 -14.7,-20.2 0,-13.4 3.1,-18.4 14.6,-18.4 3.8,0 11.8,0.9 11.8,0.9 l 0.3,-6.1 c 0,0 -9,-1.5 -13.6,-1.5 z"
           style="font-style:normal;font-variant:normal;font-weight:normal;font-stretch:normal;font-size:100px;line-height:100%;font-family:Titillium;-inkscape-font-specification:'Titillium, Normal';text-align:center;writing-mode:lr-tb;text-anchor:middle;fill:#666666"
           id="path9778"
           inkscape:connector-curvature="0" />
        <path
           d="m 1673.1461,3049.3477 c -14.9,0 -20.8,7 -20.8,25.1 0,19.6 4.7,26.9 20.6,26.9 4.6,0 13.9,-1.4 13.9,-1.4 l -0.3,-6.2 c 0,0 -8,0.9 -11.8,0.9 -12.4,0 -14.7,-5.4 -14.7,-20.2 0,-13.4 3.1,-18.4 14.6,-18.4 3.8,0 11.8,0.9 11.8,0.9 l 0.3,-6.1 c 0,0 -9,-1.5 -13.6,-1.5 z"
           style="font-style:normal;font-variant:normal;font-weight:normal;font-stretch:normal;font-size:100px;line-height:100%;font-family:Titillium;-inkscape-font-specification:'Titillium, Normal';text-align:center;writing-mode:lr-tb;text-anchor:middle;fill:#666666"
           id="path9780"
           inkscape:connector-curvature="0" />
        <path
           d="m 1715.9148,3094.7477 c -9.8,0 -13.1,-5.6 -13.1,-16.3 l 33,0 0.4,-5.7 c 0,-16.4 -6.8,-23.4 -20.1,-23.4 -12.7,0 -20.9,7.3 -20.9,26.3 0,17 4.9,25.7 19.8,25.7 8.1,0 19.5,-1.6 19.5,-1.6 l -0.2,-5.9 c 0,0 -10.9,0.9 -18.4,0.9 z m -13.2,-22.3 c 0.1,-12.1 4.9,-16.8 13.4,-16.8 8.8,0 12.6,4.4 12.6,16.8 l -26,0 z"
           style="font-style:normal;font-variant:normal;font-weight:normal;font-stretch:normal;font-size:100px;line-height:100%;font-family:Titillium;-inkscape-font-specification:'Titillium, Normal';text-align:center;writing-mode:lr-tb;text-anchor:middle;fill:#666666"
           id="path9782"
           inkscape:connector-curvature="0" />
        <path
           d="m 1781.4008,3051.2477 c 0,0 -10.6,-1.9 -18.1,-1.9 -9.1,0 -18,3.6 -18,14.6 0,10 5.4,12.1 16.7,13.9 10.9,1.7 13.5,3 13.5,8.2 0,6.8 -4.4,8.6 -12.6,8.6 -5.1,0 -16.5,-1.7 -16.5,-1.7 l -0.4,6.5 c 0,0 11.2,1.9 17.6,1.9 12,0 19.4,-3.9 19.4,-15.6 0,-9.7 -4.7,-12.2 -17.2,-14.3 -10.6,-1.8 -13,-3.1 -13,-7.8 0,-5.9 4.7,-7.6 10.9,-7.6 6.4,0 17.5,1.6 17.5,1.6 l 0.2,-6.4 z"
           style="font-style:normal;font-variant:normal;font-weight:normal;font-stretch:normal;font-size:100px;line-height:100%;font-family:Titillium;-inkscape-font-specification:'Titillium, Normal';text-align:center;writing-mode:lr-tb;text-anchor:middle;fill:#666666"
           id="path9784"
           inkscape:connector-curvature="0" />
        <path
           d="m 1827.8852,3051.2477 c 0,0 -10.6,-1.9 -18.1,-1.9 -9.1,0 -18,3.6 -18,14.6 0,10 5.4,12.1 16.7,13.9 10.9,1.7 13.5,3 13.5,8.2 0,6.8 -4.4,8.6 -12.6,8.6 -5.1,0 -16.5,-1.7 -16.5,-1.7 l -0.4,6.5 c 0,0 11.2,1.9 17.6,1.9 12,0 19.4,-3.9 19.4,-15.6 0,-9.7 -4.7,-12.2 -17.2,-14.3 -10.6,-1.8 -13,-3.1 -13,-7.8 0,-5.9 4.7,-7.6 10.9,-7.6 6.4,0 17.5,1.6 17.5,1.6 l 0.2,-6.4 z"
           style="font-style:normal;font-variant:normal;font-weight:normal;font-stretch:normal;font-size:100px;line-height:100%;font-family:Titillium;-inkscape-font-specification:'Titillium, Normal';text-align:center;writing-mode:lr-tb;text-anchor:middle;fill:#666666"
           id="path9786"
           inkscape:connector-curvature="0" />
        <path
           d="m 344.53125,3165.4477 c 0,-10.9 -4.8,-16.1 -16.1,-16.1 -8.6,0 -19.6,2.2 -19.6,2.2 l 0.3,5.7 c 0,0 11.9,-1.3 18.9,-1.3 6,0 9,2.5 9,9.5 l 0,4.3 -15.7,1.5 c -10.3,1 -15.3,5.2 -15.3,14.8 0,10.1 5,15.3 14.1,15.3 9,0 18,-4 18,-4 3,3 6.6,4 11.9,4 l 0.3,-5.9 c -3.2,-0.4 -5.6,-1.5 -5.8,-4.4 l 0,-25.6 z m -7.5,10 0,16.5 c 0,0 -8.3,3.1 -15.7,3.1 -5.1,0 -7.6,-3.4 -7.6,-9.2 0,-5.5 2.4,-8.4 8.5,-9 l 14.8,-1.4 z"
           style="font-style:normal;font-variant:normal;font-weight:normal;font-stretch:normal;font-size:100px;line-height:100%;font-family:Titillium;-inkscape-font-specification:'Titillium, Normal';text-align:center;writing-mode:lr-tb;text-anchor:middle;fill:#666666"
           id="path9788"
           inkscape:connector-curvature="0" />
        <path
           d="m 366.73125,3200.3477 0,-40.6 c 0,0 6.9,-3.7 14.1,-3.7 9.3,0 10.8,4.9 10.8,18.1 l 0,26.2 7.4,0 0,-26.4 c 0,-17.8 -3.1,-24.6 -16.9,-24.6 -7.4,0 -15.5,4.5 -15.5,4.5 l 0,-3.5 -7.4,0 0,50 7.5,0 z"
           style="font-style:normal;font-variant:normal;font-weight:normal;font-stretch:normal;font-size:100px;line-height:100%;font-family:Titillium;-inkscape-font-specification:'Titillium, Normal';text-align:center;writing-mode:lr-tb;text-anchor:middle;fill:#666666"
           id="path9790"
           inkscape:connector-curvature="0" />
        <path
           d="m 451.34219,3128.5477 -7.4,0 0,22.1 c -1.5,-0.3 -8,-1.3 -12.3,-1.3 -15.2,0 -20.9,8.8 -20.9,26.4 0,21.6 8.2,25.6 18,25.6 7.5,0 15.2,-4.4 15.2,-4.4 l 0,3.4 7.4,0 0,-71.8 z m -21.7,66.1 c -5.9,0 -11.2,-2.7 -11.2,-18.9 0,-13 3.1,-19.9 13.6,-19.9 4.1,0 10.3,0.9 11.9,1.2 l 0,33.9 c 0,0 -7.2,3.7 -14.3,3.7 z"
           style="font-style:normal;font-variant:normal;font-weight:normal;font-stretch:normal;font-size:100px;line-height:100%;font-family:Titillium;-inkscape-font-specification:'Titillium, Normal';text-align:center;writing-mode:lr-tb;text-anchor:middle;fill:#666666"
           id="path9792"
           inkscape:connector-curvature="0" />
        <path
           d="m 495.44219,3200.3477 0,-41.3 c 0,0 7,-3 14.1,-3 9.2,0 10.7,4.9 10.7,18.1 l 0,26.2 7.5,0 0,-26.4 c 0,-17.8 -3.2,-24.6 -16.9,-24.6 -7.4,0 -15.4,3.8 -15.4,3.8 l 0,-24.6 -7.5,0 0,71.8 7.5,0 z"
           style="font-style:normal;font-variant:normal;font-weight:normal;font-stretch:normal;font-size:100px;line-height:100%;font-family:Titillium;-inkscape-font-specification:'Titillium, Normal';text-align:center;writing-mode:lr-tb;text-anchor:middle;fill:#666666"
           id="path9794"
           inkscape:connector-curvature="0" />
        <path
           d="m 560.15313,3194.7477 c -9.80001,0 -13.1,-5.6 -13.1,-16.3 l 33,0 0.39999,-5.7 c 0,-16.4 -6.79999,-23.4 -20.1,-23.4 -12.69999,0 -20.9,7.3 -20.9,26.3 0,17 4.9,25.7 19.8,25.7 8.1,0 19.5,-1.6 19.5,-1.6 l -0.19999,-5.9 c 0,0 -10.9,0.9 -18.4,0.9 z m -13.20001,-22.3 c 0.10001,-12.1 4.9,-16.8 13.4,-16.8 8.80001,0 12.6,4.4 12.6,16.8 l -26,0 z"
           style="font-style:normal;font-variant:normal;font-weight:normal;font-stretch:normal;font-size:100px;line-height:100%;font-family:Titillium;-inkscape-font-specification:'Titillium, Normal';text-align:center;writing-mode:lr-tb;text-anchor:middle;fill:#666666"
           id="path9796"
           inkscape:connector-curvature="0" />
        <path
           d="m 627.53906,3165.4477 c 0,-10.9 -4.8,-16.1 -16.1,-16.1 -8.6,0 -19.6,2.2 -19.6,2.2 l 0.3,5.7 c 0,0 11.9,-1.3 18.9,-1.3 6,0 9,2.5 9,9.5 l 0,4.3 -15.7,1.5 c -10.3,1 -15.3,5.2 -15.3,14.8 0,10.1 5,15.3 14.1,15.3 9,0 18,-4 18,-4 3,3 6.6,4 11.9,4 l 0.3,-5.9 c -3.2,-0.4 -5.6,-1.5 -5.8,-4.4 l 0,-25.6 z m -7.5,10 0,16.5 c 0,0 -8.3,3.1 -15.7,3.1 -5.1,0 -7.6,-3.4 -7.6,-9.2 0,-5.5 2.4,-8.4 8.5,-9 l 14.8,-1.4 z"
           style="font-style:normal;font-variant:normal;font-weight:normal;font-stretch:normal;font-size:100px;line-height:100%;font-family:Titillium;-inkscape-font-specification:'Titillium, Normal';text-align:center;writing-mode:lr-tb;text-anchor:middle;fill:#666666"
           id="path9798"
           inkscape:connector-curvature="0" />
        <path
           d="m 642.83906,3200.3477 7.5,0 0,-71.8 -7.5,0 0,71.8 z"
           style="font-style:normal;font-variant:normal;font-weight:normal;font-stretch:normal;font-size:100px;line-height:100%;font-family:Titillium;-inkscape-font-specification:'Titillium, Normal';text-align:center;writing-mode:lr-tb;text-anchor:middle;fill:#666666"
           id="path9800"
           inkscape:connector-curvature="0" />
        <path
           d="m 691.18594,3156.8477 0,-6.5 -15.9,0 0,-15.3 -7.4,0 0,15.3 -7.1,0 0,6.5 7.1,0 0,26.3 c 0,14.4 3.5,18.3 13.8,18.3 3.5,0 10.2,-1.1 10.2,-1.1 l -0.5,-6.2 c 0,0 -6.1,0.6 -8.9,0.6 -6.5,0 -7.2,-3.1 -7.2,-14 l 0,-23.9 15.9,0 z"
           style="font-style:normal;font-variant:normal;font-weight:normal;font-stretch:normal;font-size:100px;line-height:100%;font-family:Titillium;-inkscape-font-specification:'Titillium, Normal';text-align:center;writing-mode:lr-tb;text-anchor:middle;fill:#666666"
           id="path9802"
           inkscape:connector-curvature="0" />
        <path
           d="m 707.94219,3200.3477 0,-41.3 c 0,0 7,-3 14.1,-3 9.2,0 10.7,4.9 10.7,18.1 l 0,26.2 7.5,0 0,-26.4 c 0,-17.8 -3.2,-24.6 -16.9,-24.6 -7.4,0 -15.4,3.8 -15.4,3.8 l 0,-24.6 -7.5,0 0,71.8 7.5,0 z"
           style="font-style:normal;font-variant:normal;font-weight:normal;font-stretch:normal;font-size:100px;line-height:100%;font-family:Titillium;-inkscape-font-specification:'Titillium, Normal';text-align:center;writing-mode:lr-tb;text-anchor:middle;fill:#666666"
           id="path9804"
           inkscape:connector-curvature="0" />
        <path
           d="m 811.52344,3165.4477 c 0,-10.9 -4.8,-16.1 -16.1,-16.1 -8.6,0 -19.6,2.2 -19.6,2.2 l 0.3,5.7 c 0,0 11.9,-1.3 18.9,-1.3 6,0 9,2.5 9,9.5 l 0,4.3 -15.7,1.5 c -10.3,1 -15.3,5.2 -15.3,14.8 0,10.1 5,15.3 14.1,15.3 9,0 18,-4 18,-4 3,3 6.6,4 11.9,4 l 0.3,-5.9 c -3.2,-0.4 -5.6,-1.5 -5.8,-4.4 l 0,-25.6 z m -7.5,10 0,16.5 c 0,0 -8.3,3.1 -15.7,3.1 -5.1,0 -7.6,-3.4 -7.6,-9.2 0,-5.5 2.4,-8.4 8.5,-9 l 14.8,-1.4 z"
           style="font-style:normal;font-variant:normal;font-weight:normal;font-stretch:normal;font-size:100px;line-height:100%;font-family:Titillium;-inkscape-font-specification:'Titillium, Normal';text-align:center;writing-mode:lr-tb;text-anchor:middle;fill:#666666"
           id="path9806"
           inkscape:connector-curvature="0" />
        <path
           d="m 859.62344,3151.2477 c 0,0 -10.6,-1.9 -18.1,-1.9 -9.1,0 -18,3.6 -18,14.6 0,10 5.4,12.1 16.7,13.9 10.9,1.7 13.5,3 13.5,8.2 0,6.8 -4.4,8.6 -12.6,8.6 -5.1,0 -16.5,-1.7 -16.5,-1.7 l -0.4,6.5 c 0,0 11.2,1.9 17.6,1.9 12,0 19.4,-3.9 19.4,-15.6 0,-9.7 -4.7,-12.2 -17.2,-14.3 -10.6,-1.8 -13,-3.1 -13,-7.8 0,-5.9 4.7,-7.6 10.9,-7.6 6.4,0 17.5,1.6 17.5,1.6 l 0.2,-6.4 z"
           style="font-style:normal;font-variant:normal;font-weight:normal;font-stretch:normal;font-size:100px;line-height:100%;font-family:Titillium;-inkscape-font-specification:'Titillium, Normal';text-align:center;writing-mode:lr-tb;text-anchor:middle;fill:#666666"
           id="path9808"
           inkscape:connector-curvature="0" />
        <path
           d="m 930.07812,3165.4477 c 0,-10.9 -4.79999,-16.1 -16.1,-16.1 -8.6,0 -19.6,2.2 -19.6,2.2 l 0.30001,5.7 c 0,0 11.89999,-1.3 18.89999,-1.3 6,0 9,2.5 9,9.5 l 0,4.3 -15.7,1.5 c -10.3,1 -15.3,5.2 -15.3,14.8 0,10.1 5,15.3 14.10001,15.3 9,0 18,-4 18,-4 3,3 6.6,4 11.89999,4 l 0.3,-5.9 c -3.19999,-0.4 -5.59999,-1.5 -5.8,-4.4 l 0,-25.6 z m -7.5,10 0,16.5 c 0,0 -8.29999,3.1 -15.7,3.1 -5.09999,0 -7.59999,-3.4 -7.59999,-9.2 0,-5.5 2.4,-8.4 8.5,-9 l 14.79999,-1.4 z"
           style="font-style:normal;font-variant:normal;font-weight:normal;font-stretch:normal;font-size:100px;line-height:100%;font-family:Titillium;-inkscape-font-specification:'Titillium, Normal';text-align:center;writing-mode:lr-tb;text-anchor:middle;fill:#666666"
           id="path9810"
           inkscape:connector-curvature="0" />
        <path
           d="m 952.27813,3200.3477 0,-40.6 c 0,0 6.9,-3.7 14.09999,-3.7 9.30001,0 10.80001,4.9 10.80001,18.1 l 0,26.2 7.39999,0 0,-26.4 c 0,-17.8 -3.1,-24.6 -16.89999,-24.6 -7.4,0 -15.5,4.5 -15.5,4.5 l 0,-3.5 -7.4,0 0,50 7.5,0 z"
           style="font-style:normal;font-variant:normal;font-weight:normal;font-stretch:normal;font-size:100px;line-height:100%;font-family:Titillium;-inkscape-font-specification:'Titillium, Normal';text-align:center;writing-mode:lr-tb;text-anchor:middle;fill:#666666"
           id="path9812"
           inkscape:connector-curvature="0" />
        <path
           d="m 1039.7594,3149.3477 c -15.8,0 -21.4,8.2 -21.4,25.4 0,18.2 4.6,26.6 21.4,26.6 16.9,0 21.4,-8.4 21.4,-26.6 0,-17.2 -5.5,-25.4 -21.4,-25.4 z m 0,45.5 c -11.8,0 -13.7,-5.9 -13.7,-20.1 0,-13.9 3.1,-18.9 13.7,-18.9 10.7,0 13.7,5 13.7,18.9 0,14.2 -1.8,20.1 -13.7,20.1 z"
           style="font-style:normal;font-variant:normal;font-weight:normal;font-stretch:normal;font-size:100px;line-height:100%;font-family:Titillium;-inkscape-font-specification:'Titillium, Normal';text-align:center;writing-mode:lr-tb;text-anchor:middle;fill:#666666"
           id="path9814"
           inkscape:connector-curvature="0" />
        <path
           d="m 1073.4891,3222.5477 7.5,0 0,-22.3 c 1.4,0.3 6.5,1.1 11.2,1.1 15.4,0 21.8,-7 21.8,-26.6 0,-17.7 -5.5,-25.4 -18.1,-25.4 -7.4,0 -15,4.6 -15,4.6 l 0,-3.6 -7.4,0 0,72.2 z m 21.3,-66.5 c 7.3,0 11.6,5 11.6,18.7 0,14.4 -3.6,20.1 -14.6,20.1 -4.3,0 -9.5,-0.9 -10.8,-1.1 l 0,-33.7 c 0,0 7,-4 13.8,-4 z"
           style="font-style:normal;font-variant:normal;font-weight:normal;font-stretch:normal;font-size:100px;line-height:100%;font-family:Titillium;-inkscape-font-specification:'Titillium, Normal';text-align:center;writing-mode:lr-tb;text-anchor:middle;fill:#666666"
           id="path9816"
           inkscape:connector-curvature="0" />
        <path
           d="m 1144.7234,3194.7477 c -9.8,0 -13.1,-5.6 -13.1,-16.3 l 33,0 0.4,-5.7 c 0,-16.4 -6.8,-23.4 -20.1,-23.4 -12.7,0 -20.9,7.3 -20.9,26.3 0,17 4.9,25.7 19.8,25.7 8.1,0 19.5,-1.6 19.5,-1.6 l -0.2,-5.9 c 0,0 -10.9,0.9 -18.4,0.9 z m -13.2,-22.3 c 0.1,-12.1 4.9,-16.8 13.4,-16.8 8.8,0 12.6,4.4 12.6,16.8 l -26,0 z"
           style="font-style:normal;font-variant:normal;font-weight:normal;font-stretch:normal;font-size:100px;line-height:100%;font-family:Titillium;-inkscape-font-specification:'Titillium, Normal';text-align:center;writing-mode:lr-tb;text-anchor:middle;fill:#666666"
           id="path9818"
           inkscape:connector-curvature="0" />
        <path
           d="m 1184.3094,3200.3477 0,-40.6 c 0,0 6.9,-3.7 14.1,-3.7 9.3,0 10.8,4.9 10.8,18.1 l 0,26.2 7.4,0 0,-26.4 c 0,-17.8 -3.1,-24.6 -16.9,-24.6 -7.4,0 -15.5,4.5 -15.5,4.5 l 0,-3.5 -7.4,0 0,50 7.5,0 z"
           style="font-style:normal;font-variant:normal;font-weight:normal;font-stretch:normal;font-size:100px;line-height:100%;font-family:Titillium;-inkscape-font-specification:'Titillium, Normal';text-align:center;writing-mode:lr-tb;text-anchor:middle;fill:#666666"
           id="path9820"
           inkscape:connector-curvature="0" />
        <path
           d="m 1285.9906,3151.2477 c 0,0 -10.6,-1.9 -18.1,-1.9 -9.1,0 -18,3.6 -18,14.6 0,10 5.4,12.1 16.7,13.9 10.9,1.7 13.5,3 13.5,8.2 0,6.8 -4.4,8.6 -12.6,8.6 -5.1,0 -16.5,-1.7 -16.5,-1.7 l -0.4,6.5 c 0,0 11.2,1.9 17.6,1.9 12,0 19.4,-3.9 19.4,-15.6 0,-9.7 -4.7,-12.2 -17.2,-14.3 -10.6,-1.8 -13,-3.1 -13,-7.8 0,-5.9 4.7,-7.6 10.9,-7.6 6.4,0 17.5,1.6 17.5,1.6 l 0.2,-6.4 z"
           style="font-style:normal;font-variant:normal;font-weight:normal;font-stretch:normal;font-size:100px;line-height:100%;font-family:Titillium;-inkscape-font-specification:'Titillium, Normal';text-align:center;writing-mode:lr-tb;text-anchor:middle;fill:#666666"
           id="path9822"
           inkscape:connector-curvature="0" />
        <path
           d="m 1318.275,3149.3477 c -15.8,0 -21.4,8.2 -21.4,25.4 0,18.2 4.6,26.6 21.4,26.6 16.9,0 21.4,-8.4 21.4,-26.6 0,-17.2 -5.5,-25.4 -21.4,-25.4 z m 0,45.5 c -11.8,0 -13.7,-5.9 -13.7,-20.1 0,-13.9 3.1,-18.9 13.7,-18.9 10.7,0 13.7,5 13.7,18.9 0,14.2 -1.8,20.1 -13.7,20.1 z"
           style="font-style:normal;font-variant:normal;font-weight:normal;font-stretch:normal;font-size:100px;line-height:100%;font-family:Titillium;-inkscape-font-specification:'Titillium, Normal';text-align:center;writing-mode:lr-tb;text-anchor:middle;fill:#666666"
           id="path9824"
           inkscape:connector-curvature="0" />
        <path
           d="m 1383.2047,3150.3477 0,40.6 c 0,0 -6.3,3.7 -13.7,3.7 -9.3,0 -10.5,-4.5 -10.5,-18.3 l 0,-26 -7.5,0 0,26.1 c 0,18.4 2.9,24.9 16.9,24.9 7.3,0 14.8,-4.5 14.8,-4.5 l 0,3.5 7.5,0 0,-50 -7.5,0 z"
           style="font-style:normal;font-variant:normal;font-weight:normal;font-stretch:normal;font-size:100px;line-height:100%;font-family:Titillium;-inkscape-font-specification:'Titillium, Normal';text-align:center;writing-mode:lr-tb;text-anchor:middle;fill:#666666"
           id="path9826"
           inkscape:connector-curvature="0" />
        <path
           d="m 1405.1297,3200.3477 7.5,0 0,-36.7 c 0,0 8.8,-4.9 18.2,-6.8 l 0,-7.6 c -9.6,1.9 -18.3,7.9 -18.3,7.9 l 0,-6.8 -7.4,0 0,50 z"
           style="font-style:normal;font-variant:normal;font-weight:normal;font-stretch:normal;font-size:100px;line-height:100%;font-family:Titillium;-inkscape-font-specification:'Titillium, Normal';text-align:center;writing-mode:lr-tb;text-anchor:middle;fill:#666666"
           id="path9828"
           inkscape:connector-curvature="0" />
        <path
           d="m 1457.4234,3149.3477 c -14.9,0 -20.8,7 -20.8,25.1 0,19.6 4.7,26.9 20.6,26.9 4.6,0 13.9,-1.4 13.9,-1.4 l -0.3,-6.2 c 0,0 -8,0.9 -11.8,0.9 -12.4,0 -14.7,-5.4 -14.7,-20.2 0,-13.4 3.1,-18.4 14.6,-18.4 3.8,0 11.8,0.9 11.8,0.9 l 0.3,-6.1 c 0,0 -9,-1.5 -13.6,-1.5 z"
           style="font-style:normal;font-variant:normal;font-weight:normal;font-stretch:normal;font-size:100px;line-height:100%;font-family:Titillium;-inkscape-font-specification:'Titillium, Normal';text-align:center;writing-mode:lr-tb;text-anchor:middle;fill:#666666"
           id="path9830"
           inkscape:connector-curvature="0" />
        <path
           d="m 1500.1922,3194.7477 c -9.8,0 -13.1,-5.6 -13.1,-16.3 l 33,0 0.4,-5.7 c 0,-16.4 -6.8,-23.4 -20.1,-23.4 -12.7,0 -20.9,7.3 -20.9,26.3 0,17 4.9,25.7 19.8,25.7 8.1,0 19.5,-1.6 19.5,-1.6 l -0.2,-5.9 c 0,0 -10.9,0.9 -18.4,0.9 z m -13.2,-22.3 c 0.1,-12.1 4.9,-16.8 13.4,-16.8 8.8,0 12.6,4.4 12.6,16.8 l -26,0 z"
           style="font-style:normal;font-variant:normal;font-weight:normal;font-stretch:normal;font-size:100px;line-height:100%;font-family:Titillium;-inkscape-font-specification:'Titillium, Normal';text-align:center;writing-mode:lr-tb;text-anchor:middle;fill:#666666"
           id="path9832"
           inkscape:connector-curvature="0" />
        <path
           d="m 1554.3484,3222.5477 7.5,0 0,-22.3 c 1.4,0.3 6.5,1.1 11.2,1.1 15.4,0 21.8,-7 21.8,-26.6 0,-17.7 -5.5,-25.4 -18.1,-25.4 -7.4,0 -15,4.6 -15,4.6 l 0,-3.6 -7.4,0 0,72.2 z m 21.3,-66.5 c 7.3,0 11.6,5 11.6,18.7 0,14.4 -3.6,20.1 -14.6,20.1 -4.3,0 -9.5,-0.9 -10.8,-1.1 l 0,-33.7 c 0,0 7,-4 13.8,-4 z"
           style="font-style:normal;font-variant:normal;font-weight:normal;font-stretch:normal;font-size:100px;line-height:100%;font-family:Titillium;-inkscape-font-specification:'Titillium, Normal';text-align:center;writing-mode:lr-tb;text-anchor:middle;fill:#666666"
           id="path9834"
           inkscape:connector-curvature="0" />
        <path
           d="m 1607.0828,3200.3477 7.5,0 0,-36.7 c 0,0 8.8,-4.9 18.2,-6.8 l 0,-7.6 c -9.6,1.9 -18.3,7.9 -18.3,7.9 l 0,-6.8 -7.4,0 0,50 z"
           style="font-style:normal;font-variant:normal;font-weight:normal;font-stretch:normal;font-size:100px;line-height:100%;font-family:Titillium;-inkscape-font-specification:'Titillium, Normal';text-align:center;writing-mode:lr-tb;text-anchor:middle;fill:#666666"
           id="path9836"
           inkscape:connector-curvature="0" />
        <path
           d="m 1659.8766,3149.3477 c -15.8,0 -21.4,8.2 -21.4,25.4 0,18.2 4.6,26.6 21.4,26.6 16.9,0 21.4,-8.4 21.4,-26.6 0,-17.2 -5.5,-25.4 -21.4,-25.4 z m 0,45.5 c -11.8,0 -13.7,-5.9 -13.7,-20.1 0,-13.9 3.1,-18.9 13.7,-18.9 10.7,0 13.7,5 13.7,18.9 0,14.2 -1.8,20.1 -13.7,20.1 z"
           style="font-style:normal;font-variant:normal;font-weight:normal;font-stretch:normal;font-size:100px;line-height:100%;font-family:Titillium;-inkscape-font-specification:'Titillium, Normal';text-align:center;writing-mode:lr-tb;text-anchor:middle;fill:#666666"
           id="path9838"
           inkscape:connector-curvature="0" />
        <path
           d="m 1693.7063,3199.0477 c 0,9.6 -2.1,11.9 -12.2,17.8 l 3,5.8 c 13.3,-6.8 16.6,-11.2 16.6,-23.5 l 0,-48.8 -7.4,0 0,48.7 z m 0,-60 7.4,0 0,-8.7 -7.4,0 0,8.7 z"
           style="font-style:normal;font-variant:normal;font-weight:normal;font-stretch:normal;font-size:100px;line-height:100%;font-family:Titillium;-inkscape-font-specification:'Titillium, Normal';text-align:center;writing-mode:lr-tb;text-anchor:middle;fill:#666666"
           id="path9840"
           inkscape:connector-curvature="0" />
        <path
           d="m 1733.9813,3194.7477 c -9.8,0 -13.1,-5.6 -13.1,-16.3 l 33,0 0.4,-5.7 c 0,-16.4 -6.8,-23.4 -20.1,-23.4 -12.7,0 -20.9,7.3 -20.9,26.3 0,17 4.9,25.7 19.8,25.7 8.1,0 19.5,-1.6 19.5,-1.6 l -0.2,-5.9 c 0,0 -10.9,0.9 -18.4,0.9 z m -13.2,-22.3 c 0.1,-12.1 4.9,-16.8 13.4,-16.8 8.8,0 12.6,4.4 12.6,16.8 l -26,0 z"
           style="font-style:normal;font-variant:normal;font-weight:normal;font-stretch:normal;font-size:100px;line-height:100%;font-family:Titillium;-inkscape-font-specification:'Titillium, Normal';text-align:center;writing-mode:lr-tb;text-anchor:middle;fill:#666666"
           id="path9842"
           inkscape:connector-curvature="0" />
        <path
           d="m 1784.7672,3149.3477 c -14.9,0 -20.8,7 -20.8,25.1 0,19.6 4.7,26.9 20.6,26.9 4.6,0 13.9,-1.4 13.9,-1.4 l -0.3,-6.2 c 0,0 -8,0.9 -11.8,0.9 -12.4,0 -14.7,-5.4 -14.7,-20.2 0,-13.4 3.1,-18.4 14.6,-18.4 3.8,0 11.8,0.9 11.8,0.9 l 0.3,-6.1 c 0,0 -9,-1.5 -13.6,-1.5 z"
           style="font-style:normal;font-variant:normal;font-weight:normal;font-stretch:normal;font-size:100px;line-height:100%;font-family:Titillium;-inkscape-font-specification:'Titillium, Normal';text-align:center;writing-mode:lr-tb;text-anchor:middle;fill:#666666"
           id="path9844"
           inkscape:connector-curvature="0" />
        <path
           d="m 1835.5219,3156.8477 0,-6.5 -15.9,0 0,-15.3 -7.4,0 0,15.3 -7.1,0 0,6.5 7.1,0 0,26.3 c 0,14.4 3.5,18.3 13.8,18.3 3.5,0 10.2,-1.1 10.2,-1.1 l -0.5,-6.2 c 0,0 -6.1,0.6 -8.9,0.6 -6.5,0 -7.2,-3.1 -7.2,-14 l 0,-23.9 15.9,0 z"
           style="font-style:normal;font-variant:normal;font-weight:normal;font-stretch:normal;font-size:100px;line-height:100%;font-family:Titillium;-inkscape-font-specification:'Titillium, Normal';text-align:center;writing-mode:lr-tb;text-anchor:middle;fill:#666666"
           id="path9846"
           inkscape:connector-curvature="0" />
        <path
           d="m 1844.2781,3200.3477 8.2,0 0,-11.4 -8.2,0 0,11.4 z"
           style="font-style:normal;font-variant:normal;font-weight:normal;font-stretch:normal;font-size:100px;line-height:100%;font-family:Titillium;-inkscape-font-specification:'Titillium, Normal';text-align:center;writing-mode:lr-tb;text-anchor:middle;fill:#666666"
           id="path9848"
           inkscape:connector-curvature="0" />
      </g>
    </g>
  </g>
</svg>
